<svg class="animated" id="freepik_stories-vehicle-sale" xmlns="http://www.w3.org/2000/svg" viewBox="0 0 750 500" version="1.1" xmlns:xlink="http://www.w3.org/1999/xlink" xmlns:svgjs="http://svgjs.com/svgjs"><style>svg#freepik_stories-vehicle-sale:not(.animated) .animable {opacity: 0;}svg#freepik_stories-vehicle-sale.animated #freepik--Character--inject-35 {animation: 3s Infinite  linear floating;animation-delay: 0s;}            @keyframes floating {                0% {                    opacity: 1;                    transform: translateY(0px);                }                50% {                    transform: translateY(-10px);                }                100% {                    opacity: 1;                    transform: translateY(0px);                }            }        .animator-hidden { display: none; }</style><g id="freepik--Floor--inject-35" class="animable" style="transform-origin: 375px 440.335px;"><polygon points="51.68 440.33 132.51 440.09 213.34 440 375 439.84 536.66 440 617.49 440.09 698.32 440.33 617.49 440.58 536.66 440.67 375 440.83 213.34 440.67 132.51 440.58 51.68 440.33" style="fill: rgb(38, 50, 56); transform-origin: 375px 440.335px;" id="elvb1apfrgnbm" class="animable"></polygon></g><g id="freepik--Plant--inject-35" class="animable animator-hidden" style="transform-origin: 651.485px 330.64px;"><path d="M654.36,271.17s23.75-3.32,18.2-32C672.56,239.18,646,245.14,654.36,271.17Z" style="fill: rgb(172, 2, 2); transform-origin: 663.066px 255.17px;" id="elmei7w7xb9ih" class="animable"></path><g id="elszchsvv5dh"><path d="M654.36,271.17s23.75-3.32,18.2-32C672.56,239.18,646,245.14,654.36,271.17Z" style="opacity: 0.1; transform-origin: 663.066px 255.17px;" class="animable"></path></g><path d="M655.56,265.19c.47-1.45,1-2.88,1.62-4.28,0-.18.05-.36.06-.54,0-.39.07-.79.1-1.18.07-.86.12-1.71.17-2.57.1-1.71.21-3.43.24-5.14a.07.07,0,0,1,.14,0c0,1.72,0,3.43,0,5.15,0,.86-.08,1.71-.14,2.57,0,.19,0,.38,0,.57a50.51,50.51,0,0,1,4.76-8.14,41,41,0,0,1,2.6-3.3c.94-1.08,1.94-2.11,2.9-3.18.06-.07.16,0,.1.1a42.53,42.53,0,0,0-4.58,6.09c-.72,1.09-1.4,2.21-2.05,3.35l.22-.09.85-.34,1.94-.73,3.82-1.42c.07,0,.13.1,0,.13-1.26.5-2.51,1-3.76,1.57l-1.84.79-.93.39a3.35,3.35,0,0,1-.63.22c-.47.86-.95,1.72-1.39,2.6a65.22,65.22,0,0,0-2.9,6.84c-.06.17-.11.33-.17.49a14.44,14.44,0,0,1,2-.93l2.45-1.12c1.67-.77,3.33-1.54,4.92-2.45.08,0,.15.09.07.13-1.63.89-3.23,1.84-4.86,2.73-.82.44-1.64.87-2.48,1.28a7.94,7.94,0,0,1-2.23.89,28.22,28.22,0,0,0-1.56,6.74c-.26,3.24-.23,6.51-.31,9.75a0,0,0,1,1-.08,0c-.24-3-.37-5.92-.39-8.88A25.9,25.9,0,0,1,655.56,265.19Z" style="fill: rgb(38, 50, 56); transform-origin: 661.303px 263.641px;" id="el6fq4m8arzyo" class="animable"></path><path d="M659.22,248.33a28.56,28.56,0,0,1,.24,5.06,0,0,0,0,1-.07,0c-.1-1.67-.12-3.34-.31-5C659.07,248.27,659.21,248.24,659.22,248.33Z" style="fill: rgb(38, 50, 56); transform-origin: 659.282px 250.834px;" id="elergp5x8n8m" class="animable"></path><path d="M666,249.76a17.26,17.26,0,0,0,3-1.5c.08,0,.15.08.07.13a11.67,11.67,0,0,1-3.08,1.48C666,249.88,666,249.79,666,249.76Z" style="fill: rgb(38, 50, 56); transform-origin: 667.548px 249.065px;" id="elotn6gfr3lfs" class="animable"></path><path d="M653.61,316.68c0-2.63.07-5.25.1-7.87,0-8.72.12-17.43.27-26.15q.19-10.37.49-20.75s0-.06.06-.08l0-5.67c0-.05.05-.07.11-.07s.11,0,.11.07c0,1.89,0,3.79,0,5.68a.09.09,0,0,1,0,.08c.35,12.31.66,24.63.74,36.94,0,2.5,0,5,0,7.51q.12,12,.09,24.09c0,1.28,0,2.55,0,3.83,0,7.35-.07,14.69-.08,22,0,.39-.44.59-.9.61s-1.1-.19-1.1-.64c0-8.1-.06-16.2-.06-24.3C653.59,326.89,653.57,321.78,653.61,316.68Z" style="fill: rgb(38, 50, 56); transform-origin: 654.513px 306.496px;" id="elphqzsb2cu3" class="animable"></path><path d="M663.52,308.71s11.42-8.47,22.26-2.75,12.54,27.76,12.54,27.76-15.91,2.28-25.94-7.26C662.72,317.26,663.52,308.71,663.52,308.71Z" style="fill: rgb(172, 2, 2); transform-origin: 680.912px 318.967px;" id="el3aoiozmnkvh" class="animable"></path><g id="el5hkqwnhgp6w"><path d="M663.52,308.71s11.42-8.47,22.26-2.75,12.54,27.76,12.54,27.76-15.91,2.28-25.94-7.26C662.72,317.26,663.52,308.71,663.52,308.71Z" style="opacity: 0.1; transform-origin: 680.912px 318.967px;" class="animable"></path></g><path d="M660.41,309.23a13.66,13.66,0,0,1,6.62-.86,8.1,8.1,0,0,1,1.4-.14l1.61-.12c1.1-.09,2.22-.15,3.33-.24,2.25-.17,4.51-.3,6.76-.53.08,0,.09.13,0,.14-2.22.29-4.44.6-6.67.83-1.15.12-2.3.23-3.45.32l-.83.08c.34.07.68.15,1,.25a27.3,27.3,0,0,1,5.18,2.1c.9.16,1.79.42,2.67.62,1.42.34,2.82.7,4.23,1.07,2.77.72,5.51,1.54,8.27,2.34.09,0,0,.16,0,.14-2.75-.67-5.51-1.29-8.27-2-1.33-.32-2.68-.63-4-1l-1.05-.24a33.49,33.49,0,0,1,8.12,7.06,44.39,44.39,0,0,1,5.64,8.89c0,.09-.08.17-.12.08a43.46,43.46,0,0,0-6.83-9l.15.46.63,2c.43,1.34.85,2.68,1.25,4,0,.09-.1.12-.14,0-.48-1.3-.93-2.61-1.39-3.93-.23-.64-.46-1.28-.68-1.92-.12-.34-.23-.67-.34-1,0-.1-.08-.2-.11-.3a42.57,42.57,0,0,0-4.05-3.46,30.65,30.65,0,0,0-6.07-3.47l.12.58c.11.52.23,1,.33,1.57.23,1.08.44,2.16.65,3.24.43,2.21.69,4.45,1.11,6.66a.07.07,0,1,1-.14,0c-.51-2.22-1.17-4.41-1.67-6.64-.25-1.11-.5-2.23-.73-3.34-.11-.53-.21-1.05-.32-1.57-.06-.29-.12-.58-.16-.88l-.62-.25c-3-1.11-6.31-1.92-9.5-1.3a9.29,9.29,0,0,0-6.87,5.51c-.11.24-.5.09-.44-.16A8.8,8.8,0,0,1,660.41,309.23Z" style="fill: rgb(38, 50, 56); transform-origin: 672.997px 317.7px;" id="elsdyrmqbpd2" class="animable"></path><path d="M677.89,318.64c.33,1.45.65,2.89,1,4.34a33.74,33.74,0,0,1,.8,4.22c0,.06-.08.06-.1,0a34.54,34.54,0,0,1-1-4.26l-.84-4.28C677.74,318.58,677.87,318.55,677.89,318.64Z" style="fill: rgb(38, 50, 56); transform-origin: 678.72px 322.915px;" id="elc0x5rc8v8l4" class="animable"></path><path d="M688.94,322.32c1.45.74,2.86,1.58,4.38,2.18a.07.07,0,1,1-.06.13,44.82,44.82,0,0,1-4.35-2.26S688.9,322.3,688.94,322.32Z" style="fill: rgb(38, 50, 56); transform-origin: 691.136px 323.477px;" id="eljn53v90l1q" class="animable"></path><path d="M661,293.17s13.95.89,20.45-8.32,5-22.35,5-22.35-14.66,1.78-20.48,8.39S661,293.17,661,293.17Z" style="fill: rgb(172, 2, 2); transform-origin: 673.778px 277.847px;" id="elk751qtty0hq" class="animable"></path><path d="M654.4,306.94c.49-1.5,1.09-3,1.65-4.44s1.12-2.8,1.74-4.18A84.58,84.58,0,0,1,662,290.1c1-1.7,2-3.34,3.13-5,0-.25.07-.49.11-.74.06-.43.12-.87.19-1.3.14-.88.29-1.76.44-2.64.32-1.93.72-3.85,1-5.78,0-.09.16-.09.14,0-.28,1.9-.47,3.82-.74,5.72-.13.94-.25,1.88-.39,2.81,0,.34-.11.68-.16,1a101.12,101.12,0,0,1,6.9-9l1-1.14c0-.11.09-.21.13-.32.11-.27.21-.53.31-.8l.6-1.66c.39-1.1.74-2.2,1-3.32,0-.09.16,0,.14,0-.28,1.14-.58,2.29-.92,3.42-.16.55-.34,1.09-.53,1.62l-.1.27c1.79-1.94,3.65-3.82,5.53-5.67.06-.07.16,0,.1.1a100.09,100.09,0,0,0-9.9,12.12,8.32,8.32,0,0,1,1-.26c1.07-.21,2.16-.36,3.24-.5,2.28-.29,4.54-.58,6.81-.93a.07.07,0,1,1,0,.14c-2.16.42-4.3.91-6.45,1.4-1,.24-2,.43-3.05.64a18.52,18.52,0,0,0-2.45.69c-.23.33-.46.64-.68,1-1,1.49-2,3-3,4.55l1.42-.28c1.08-.21,2.16-.41,3.24-.59,2.13-.35,4.26-.72,6.37-1.19.09,0,.12.11,0,.14-2.13.5-4.25,1.08-6.36,1.65q-1.54.4-3.09.75l-1.55.33a4,4,0,0,1-.63.11c-2,3.3-4,6.69-5.72,10.14-.78,1.52-1.53,3.06-2.26,4.6s-1.38,3.2-2.07,4.81C654.8,307.42,654.29,307.29,654.4,306.94Z" style="fill: rgb(38, 50, 56); transform-origin: 667.742px 287.402px;" id="el4w9s3athgtp" class="animable"></path><path d="M668.69,274.86q.4-2,.84-4c0-.09.16-.05.14.05q-.39,1.95-.75,3.93c-.24,1.3-.43,2.63-.79,3.91,0,0,0,0,0,0A27.12,27.12,0,0,1,668.69,274.86Z" style="fill: rgb(38, 50, 56); transform-origin: 668.901px 274.78px;" id="elb9j8s21hhww" class="animable"></path><path d="M676.83,274.47c.65-.32,1.34-.58,2-.84l1.06-.42.54-.22a2.55,2.55,0,0,0,.59-.25c.1-.08.17.1.06.12a2.71,2.71,0,0,0-.59.24l-.53.24-1,.45a19.2,19.2,0,0,1-2.06.82C676.81,274.64,676.76,274.51,676.83,274.47Z" style="fill: rgb(38, 50, 56); transform-origin: 678.966px 273.667px;" id="el1o2ppi8825g" class="animable"></path><path d="M646.67,282.19s-8.45-15.78-21.3-18.22-20.72,10.78-20.72,10.78,9.37,12,21.17,14.06S646.67,282.19,646.67,282.19Z" style="fill: rgb(172, 2, 2); transform-origin: 625.66px 276.398px;" id="elw8tby0frsxk" class="animable"></path><path d="M616.75,271a34.76,34.76,0,0,1,10.08.12l-.57-.31-2.85-1.47c-2-1-4-2.12-6-2.94a.08.08,0,0,1,.06-.14c2,.94,4.1,1.73,6.11,2.65,1,.47,2,.95,3,1.47.63.34,1.33.65,2,1.06a34.77,34.77,0,0,1,8.16,2.71l-1.6-1.75c-1.2-1.31-2.38-2.69-3.7-3.88a.07.07,0,0,1,.11-.1c1.35,1.22,2.76,2.35,4.07,3.62.63.62,1.24,1.25,1.83,1.91.29.33.59.67.87,1a33.84,33.84,0,0,1,17.23,23.26c0,.09-.11.14-.14.05a38.86,38.86,0,0,0-9.45-16,37.11,37.11,0,0,0-17.22-10,37.71,37.71,0,0,0-11.88-1.08A.13.13,0,0,1,616.75,271Z" style="fill: rgb(38, 50, 56); transform-origin: 636.145px 282.284px;" id="elm3t5qxxlrpm" class="animable"></path><g id="elad9j90x5sdw"><path d="M604.65,274.75s9.37,12,21.17,14.06c9,1.59,16.4-3.1,19.4-5.41l.65-1.07s-6.08-5.12-17.59-8.08S604.65,274.75,604.65,274.75Z" style="opacity: 0.1; transform-origin: 625.26px 281.092px;" class="animable"></path></g><path d="M624.22,265.41a33.48,33.48,0,0,1,2.85,1.89,17.75,17.75,0,0,1,2.48,2.26.08.08,0,0,1-.11.11c-.85-.74-1.71-1.48-2.6-2.18a25.68,25.68,0,0,0-2.7-1.95C624.06,265.49,624.14,265.36,624.22,265.41Z" style="fill: rgb(38, 50, 56); transform-origin: 626.834px 267.54px;" id="eli999ljnscp" class="animable"></path><path d="M617.16,268.08c.48.2,1,.37,1.44.57l1.43.6a.08.08,0,1,1,0,.16l-1.43-.58c-.48-.19-.95-.41-1.43-.61C617,268.19,617.08,268.05,617.16,268.08Z" style="fill: rgb(38, 50, 56); transform-origin: 618.59px 268.743px;" id="elqrk1y8lowu" class="animable"></path><path d="M648.35,302.05s-2.26,15.65-14,21.13-26.12,0-26.12,0S613.85,289.31,648.35,302.05Z" style="fill: rgb(172, 2, 2); transform-origin: 628.29px 312.4px;" id="el3hjyyh3ybni" class="animable"></path><g id="el0c2mz5vef9gn"><path d="M648.35,302.05s-2.26,15.65-14,21.13-26.12,0-26.12,0S613.85,289.31,648.35,302.05Z" style="opacity: 0.1; transform-origin: 628.29px 312.4px;" class="animable"></path></g><path d="M616.31,313c1.09-.13,2.17-.31,3.24-.51l1.59-.3L622,312c.32-.3.63-.6,1-.89a47.2,47.2,0,0,1,7.19-5.21,39.11,39.11,0,0,1,4.32-2.22h-.22l-3.88.17c-2.58.12-5.16.17-7.75.34-.09,0-.09-.14,0-.14,2.59-.18,5.17-.46,7.75-.69,1.26-.1,2.51-.22,3.77-.33l1.94-.17.5,0c.67-.25,1.34-.49,2-.7a18.3,18.3,0,0,1,10-.55c3,.76,5.91,2.7,6.68,5.82a.1.1,0,0,1-.19.07c-1.1-2.61-4-3.92-6.61-4.46a15.64,15.64,0,0,0-5.33-.11,12.47,12.47,0,0,1-.6,2.37c-.32,1.1-.64,2.2-1,3.3-.66,2.2-1.4,4.38-2,6.58a.07.07,0,0,1-.14,0c.55-2.2,1-4.41,1.54-6.62.26-1.08.53-2.15.8-3.23a17.54,17.54,0,0,1,.59-2.23,28.18,28.18,0,0,0-3,.72,43.89,43.89,0,0,0-5.34,2c-.17,1.11-.42,2.22-.68,3.32-.32,1.38-.68,2.75-1.11,4.1a.07.07,0,0,1-.13,0,2.38,2.38,0,0,1,0-.26h0c.26-1.28.55-2.56.82-3.83.21-1,.41-2.07.64-3.1-1.46.66-2.9,1.37-4.29,2.17,0,.32-.11.65-.15.94-.09.54-.19,1.07-.29,1.6-.22,1.21-.46,2.42-.75,3.61a55.45,55.45,0,0,1-2,6.81.07.07,0,0,1,0,.09l-.07.08c0,.06-.13,0-.12-.08.55-2.32,1.17-4.62,1.68-6.95.25-1.16.51-2.32.74-3.49.12-.58.23-1.17.34-1.75,0-.16.05-.34.08-.52a48.72,48.72,0,0,0-11.6,9.46c-.09.09-.25,0-.18-.14a44,44,0,0,1,2.81-3.42c.59-.64,1.21-1.25,1.83-1.85l-.19,0c-.55.1-1.11.18-1.66.25-1.09.15-2.18.25-3.27.38C616.26,313.15,616.22,313,616.31,313Z" style="fill: rgb(38, 50, 56); transform-origin: 635.785px 311.267px;" id="elrhz31kh95r" class="animable"></path><path d="M624.59,318.3h0c0-.13,0-.27.06-.4s.12-.34.15-.51h0c.24-1.05.45-2.1.64-3.16,0-.07.13-.05.12,0a12.76,12.76,0,0,1-.89,4.09s-.09,0-.09,0Z" style="fill: rgb(38, 50, 56); transform-origin: 625.07px 316.252px;" id="el28q55seoo5v" class="animable"></path><path d="M634.44,318.05s0-.06.07-.06c.33-1.39.65-2.78.93-4.17.15-.74.31-1.47.45-2.2.07-.4.14-.8.22-1.19a3.47,3.47,0,0,1,.25-1,.07.07,0,0,1,.13,0,6.87,6.87,0,0,1-.29,2.1c-.15.76-.3,1.53-.47,2.29-.34,1.54-.72,3.08-1.16,4.6a.08.08,0,0,1-.16,0Z" style="fill: rgb(38, 50, 56); transform-origin: 635.451px 313.943px;" id="els1thhmrv2dr" class="animable"></path><path d="M617.39,308.49c2.15-.3,4.29-.61,6.45-.87.09,0,.13.13,0,.14-2.14.32-4.3.59-6.45.87C617.33,308.64,617.29,308.5,617.39,308.49Z" style="fill: rgb(38, 50, 56); transform-origin: 620.626px 308.125px;" id="eluurtgosyon" class="animable"></path><path d="M654.38,265.34s7.2-31.6-26.75-44.39C627.63,221,618.23,262.54,654.38,265.34Z" style="fill: rgb(172, 2, 2); transform-origin: 640.774px 243.145px;" id="el542riigvz28" class="animable"></path><path d="M647.05,247.42c-.12-.09-.25-.16-.36-.23l-1.92-1.07-3.94-2.2c-2.59-1.45-5.15-3-7.76-4.38-.08,0,0-.16.08-.12,2.61,1.42,5.27,2.75,7.9,4.14l3.9,2.06,1.58.84c-1.13-2.15-2.34-4.26-3.67-6.28-1.77-2.71-3.72-5.29-5.74-7.81a.12.12,0,0,1,.17-.16,54.28,54.28,0,0,1,7.85,9.62c0-.11,0-.22,0-.33,0-.78-.06-1.57-.07-2.35,0-1.55.05-3.09,0-4.63,0-.1.14-.09.15,0,.06,1.52.24,3,.33,4.55,0,.76.08,1.51.1,2.27,0,.41.05.88,0,1.33.7,1.11,1.37,2.24,2,3.38a59,59,0,0,1,3,6.37c0-.79.09-1.58.13-2.36.1-1.73.31-3.46.39-5.19a.07.07,0,1,1,.14,0c0,1.73,0,3.46,0,5.19,0,.87-.05,1.73-.11,2.59,0,.32,0,.64-.06,1a58.27,58.27,0,0,1,2.57,8.68,93.29,93.29,0,0,1,1.26,9.54s0,0,0,0a52,52,0,0,0-1.81-8.51c-.42-1.49-.86-3-1.34-4.44-1.41-.67-2.76-1.5-4.13-2.25s-2.84-1.56-4.26-2.34c-2.83-1.55-5.66-3.13-8.58-4.5-.09,0,0-.16.08-.13,3,1.34,5.94,2.62,8.85,4.08q2.16,1.1,4.28,2.3c1.17.66,2.39,1.33,3.51,2.09-.33-1-.67-2-1.05-2.93A83.59,83.59,0,0,0,647.05,247.42Z" style="fill: rgb(38, 50, 56); transform-origin: 644.004px 252.03px;" id="elc80m494mggr" class="animable"></path><path d="M649.92,240.19c0-.09.15-.09.14,0-.12,1.81-.18,3.61-.37,5.41,0,.1-.17.1-.16,0C649.59,243.79,649.78,242,649.92,240.19Z" style="fill: rgb(38, 50, 56); transform-origin: 649.795px 242.899px;" id="elchxhwqdp9c6" class="animable"></path><path d="M633.64,246.23c2.12.85,4.27,1.66,6.38,2.55.06,0,0,.12,0,.1-2.14-.81-4.26-1.68-6.39-2.52C633.51,246.33,633.55,246.19,633.64,246.23Z" style="fill: rgb(38, 50, 56); transform-origin: 636.801px 247.553px;" id="elgwl09xzg32o" class="animable"></path><path d="M630.41,231.65a55.63,55.63,0,0,1,6,3.24c.1.06,0,.21-.1.15-2-1.15-4-2.25-6-3.27C630.25,231.73,630.33,231.61,630.41,231.65Z" style="fill: rgb(38, 50, 56); transform-origin: 633.37px 233.348px;" id="eltkwjfyxd6us" class="animable"></path><g id="eldpnrzuc2t4"><rect x="630.92" y="333.67" width="48.96" height="51.61" style="fill: rgb(69, 90, 100); transform-origin: 655.4px 359.475px; transform: rotate(180deg);" class="animable"></rect></g><rect x="680.75" y="351.93" width="2.51" height="88.4" style="fill: rgb(38, 50, 56); transform-origin: 682.005px 396.13px;" id="elp3iri52ar9" class="animable"></rect><rect x="627.82" y="351.93" width="2.51" height="88.4" style="fill: rgb(38, 50, 56); transform-origin: 629.075px 396.13px;" id="elg2it63727cm" class="animable"></rect><rect x="652.95" y="351.93" width="2.51" height="88.4" style="fill: rgb(38, 50, 56); transform-origin: 654.205px 396.13px;" id="el86zu75xi6r2" class="animable"></rect><g id="el86vfpp4gmzt"><rect x="629.07" y="381.97" width="52.93" height="7.15" style="fill: rgb(38, 50, 56); transform-origin: 655.535px 385.545px; transform: rotate(180deg);" class="animable"></rect></g></g><g id="freepik--Car--inject-35" class="animable" style="transform-origin: 362.013px 322.547px;"><path d="M523.9,278.6l-.79-2.71s10-10.77,12.91-12.09,20.54,2,21.5,3.55.58,8.35.34,9.55-16,3.88-18.59,4S523.9,278.6,523.9,278.6Z" style="fill: rgb(172, 2, 2); transform-origin: 540.625px 272.2px;" id="elfo12qtwemx" class="animable"></path><path d="M523.11,275.89l.79,2.71s-6.69,5-6.93,5.33.16,1.74.16,1.74h-6.77v-9.78a16.14,16.14,0,0,0,3.16,1.35C514.5,277.41,523.11,275.89,523.11,275.89Z" style="fill: rgb(172, 2, 2); transform-origin: 517.13px 280.78px;" id="elg2aexkrj7es" class="animable"></path><g id="el66dfowuylm3"><g style="opacity: 0.1; transform-origin: 534.25px 274.583px;" class="animable"><path d="M523.9,278.6l-.79-2.71s10-10.77,12.91-12.09,20.54,2,21.5,3.55.58,8.35.34,9.55-16,3.88-18.59,4S523.9,278.6,523.9,278.6Z" id="el294in2vgits" class="animable" style="transform-origin: 540.625px 272.2px;"></path><path d="M523.11,275.89l.79,2.71s-6.69,5-6.93,5.33.16,1.74.16,1.74h-6.77v-9.78a16.14,16.14,0,0,0,3.16,1.35C514.5,277.41,523.11,275.89,523.11,275.89Z" id="els9mrw4envob" class="animable" style="transform-origin: 517.13px 280.78px;"></path></g></g><path d="M399.07,382.08c-.72,26.15-11.12,58.23-34.28,58.23-2.27,0-33.28.6-35.31-.08C310.81,434,299.75,400,301.85,370c1.63-23.38,9.06-49.56,28.58-52.7,1.31-.21,33.93,0,35.34,0C389.15,317.27,399.84,353.94,399.07,382.08Z" style="fill: rgb(38, 50, 56); transform-origin: 350.352px 378.881px;" id="el0lkmi8l5p0h" class="animable"></path><path d="M361.89,382.08c-.72,26.15-11.11,58.23-34.27,58.23S293.86,403.24,296.19,370c1.74-24.94,9.79-52.7,32.41-52.7C352,317.27,362.67,353.94,361.89,382.08Z" style="fill: rgb(55, 71, 79); transform-origin: 328.902px 378.805px;" id="elhdnxht75kpv" class="animable"></path><path d="M352.25,381.32c-.59,20.14-8.34,44.84-25.46,44.84S301.92,397.62,303.71,372c1.34-19.2,7.35-40.58,24.07-40.58C345.06,331.42,352.88,359.66,352.25,381.32Z" style="fill: rgb(199, 199, 199); transform-origin: 327.872px 378.79px;" id="elp3vbru18mfk" class="animable"></path><path d="M322.3,335.77c.35,8.18,1.59,34.26,3.36,34.26,1.5,0,5.89-24.61,7.44-33.51a13,13,0,0,0-6.05-1.49A15.15,15.15,0,0,0,322.3,335.77Z" style="fill: rgb(38, 50, 56); transform-origin: 327.7px 352.53px;" id="elus7zj9av1g" class="animable"></path><path d="M328.87,371.58c.95.71,9.33-11.05,15.43-19.87a37.71,37.71,0,0,0-5.5-10.27C334.85,351.54,327.59,370.62,328.87,371.58Z" style="fill: rgb(38, 50, 56); transform-origin: 336.51px 356.525px;" id="elrvala2luam" class="animable"></path><path d="M330.46,374.61c.43,1.06,9.44-3.06,17.57-7a81,81,0,0,0-1.84-9.74C338.75,364.74,329.94,373.29,330.46,374.61Z" style="fill: rgb(38, 50, 56); transform-origin: 339.234px 366.324px;" id="ela767de7t5n7" class="animable"></path><path d="M331.31,378.28c-.09,1.23,9,3,17.32,4.29,0-.49,0-1,.06-1.44.08-2.62,0-5.34-.15-8.1C340.25,374.74,331.4,376.9,331.31,378.28Z" style="fill: rgb(38, 50, 56); transform-origin: 340.015px 377.8px;" id="el3fvvekapgoq" class="animable"></path><path d="M346.05,399.64a81.77,81.77,0,0,0,2.09-11.15c-7.94-3.69-17.21-7.66-17.91-6.38S339.11,392.93,346.05,399.64Z" style="fill: rgb(38, 50, 56); transform-origin: 339.167px 390.752px;" id="elsy5roeoaot" class="animable"></path><path d="M336.2,418.37a31.26,31.26,0,0,0,7.33-11.23c-5.1-8.72-13.84-23.16-15.19-22.24S334,410.7,336.2,418.37Z" style="fill: rgb(38, 50, 56); transform-origin: 335.849px 401.614px;" id="el2ehhklu1x9t" class="animable"></path><path d="M318.33,420a12.69,12.69,0,0,0,7.61,2.55,13.49,13.49,0,0,0,3.14-.35c-.28-6.84-1.53-35.21-3.4-35.21C324.22,387,319.94,410.73,318.33,420Z" style="fill: rgb(38, 50, 56); transform-origin: 323.705px 404.77px;" id="el2a2hbm3l7nk" class="animable"></path><path d="M308.46,403.45a43,43,0,0,0,4.64,10.75c4-10.14,10.34-27.05,9.13-28C321.35,385.58,314.27,395.23,308.46,403.45Z" style="fill: rgb(38, 50, 56); transform-origin: 315.42px 400.186px;" id="el542xi86uhjh" class="animable"></path><path d="M305.72,388.49a83.81,83.81,0,0,0,1.27,8.93c6.5-6.14,13.16-12.83,12.7-14C319.32,382.47,312.62,385.28,305.72,388.49Z" style="fill: rgb(38, 50, 56); transform-origin: 312.716px 390.326px;" id="el6qkq01htbla" class="animable"></path><path d="M305.4,375.29c-.12,2.76-.12,5.54,0,8.29,6.88-1.45,13.28-3.11,13.37-4.32C318.83,378.2,312.3,376.64,305.4,375.29Z" style="fill: rgb(38, 50, 56); transform-origin: 312.04px 379.435px;" id="elbtknjq3z0eg" class="animable"></path><path d="M305.75,370c6.66,3.16,13.34,6,13.93,4.88s-6.35-8.73-12.46-15.12A91.46,91.46,0,0,0,305.75,370Z" style="fill: rgb(38, 50, 56); transform-origin: 312.733px 367.445px;" id="el9d5xhkkezw7" class="animable"></path><path d="M309.14,352.37s0,0,0,0c4.93,8.52,11.85,20,13.06,19.15s-4.23-22.24-6.63-31.2A33.12,33.12,0,0,0,309.14,352.37Z" style="fill: rgb(38, 50, 56); transform-origin: 315.757px 355.942px;" id="elixo4j1xvb1o" class="animable"></path><path d="M661.34,382.08c-.73,26.15-11.12,58.23-34.28,58.23-2.27,0-33.28.6-35.31-.08C573.08,434,562,400,564.12,370c1.63-23.38,9.06-49.56,28.58-52.7,1.3-.21,33.93,0,35.34,0C651.42,317.27,662.11,353.94,661.34,382.08Z" style="fill: rgb(38, 50, 56); transform-origin: 612.62px 378.881px;" id="el55k6ex7zyqy" class="animable"></path><path d="M624.16,382.08c-.72,26.15-11.11,58.23-34.27,58.23S556.13,403.24,558.46,370c1.74-24.94,9.79-52.7,32.4-52.7C614.25,317.27,624.94,353.94,624.16,382.08Z" style="fill: rgb(55, 71, 79); transform-origin: 591.172px 378.805px;" id="el70cyli4sx6i" class="animable"></path><path d="M614.52,381.32c-.59,20.14-8.34,44.84-25.46,44.84S564.19,397.62,566,372c1.34-19.2,7.35-40.58,24.07-40.58C607.33,331.42,615.15,359.66,614.52,381.32Z" style="fill: rgb(199, 199, 199); transform-origin: 590.149px 378.79px;" id="elmpr4viclios" class="animable"></path><path d="M584.57,335.77c.35,8.18,1.58,34.26,3.36,34.26,1.5,0,5.89-24.61,7.44-33.51a13,13,0,0,0-6-1.49A15.15,15.15,0,0,0,584.57,335.77Z" style="fill: rgb(38, 50, 56); transform-origin: 589.97px 352.53px;" id="elxm9te0lvmur" class="animable"></path><path d="M591.14,371.58c1,.71,9.33-11.05,15.42-19.87a37.42,37.42,0,0,0-5.49-10.27C597.12,351.54,589.86,370.62,591.14,371.58Z" style="fill: rgb(38, 50, 56); transform-origin: 598.775px 356.525px;" id="elt0l808sbu2a" class="animable"></path><path d="M592.73,374.61c.42,1.06,9.44-3.06,17.57-7a81,81,0,0,0-1.84-9.74C601,364.74,592.21,373.29,592.73,374.61Z" style="fill: rgb(38, 50, 56); transform-origin: 601.504px 366.324px;" id="elz7zz8pobszr" class="animable"></path><path d="M593.57,378.28c-.08,1.23,9,3,17.33,4.29,0-.49,0-1,.06-1.44.08-2.62,0-5.34-.15-8.1C602.52,374.74,593.67,376.9,593.57,378.28Z" style="fill: rgb(38, 50, 56); transform-origin: 602.281px 377.8px;" id="el7x9hdy1dzh" class="animable"></path><path d="M608.32,399.64a81.77,81.77,0,0,0,2.09-11.15c-7.94-3.69-17.21-7.66-17.91-6.38S601.38,392.93,608.32,399.64Z" style="fill: rgb(38, 50, 56); transform-origin: 601.437px 390.752px;" id="elfxf74le37ye" class="animable"></path><path d="M598.47,418.37a31.26,31.26,0,0,0,7.33-11.23C600.7,398.42,592,384,590.61,384.9S596.25,410.7,598.47,418.37Z" style="fill: rgb(38, 50, 56); transform-origin: 598.115px 401.615px;" id="elkomc03zovzj" class="animable"></path><path d="M580.6,420a12.69,12.69,0,0,0,7.61,2.55,13.49,13.49,0,0,0,3.14-.35c-.28-6.84-1.53-35.21-3.4-35.21C586.49,387,582.21,410.73,580.6,420Z" style="fill: rgb(38, 50, 56); transform-origin: 585.975px 404.77px;" id="el5k1urx44hgj" class="animable"></path><path d="M570.73,403.45a43,43,0,0,0,4.64,10.75c4-10.14,10.34-27.05,9.13-28C583.62,385.58,576.54,395.23,570.73,403.45Z" style="fill: rgb(38, 50, 56); transform-origin: 577.69px 400.186px;" id="elnl733yq6jt9" class="animable"></path><path d="M568,388.49a83.81,83.81,0,0,0,1.27,8.93c6.5-6.14,13.16-12.83,12.69-14C581.59,382.47,574.89,385.28,568,388.49Z" style="fill: rgb(38, 50, 56); transform-origin: 574.992px 390.326px;" id="elsprxk4fwupb" class="animable"></path><path d="M567.67,375.29c-.12,2.76-.12,5.54,0,8.29,6.88-1.45,13.28-3.11,13.37-4.32C581.1,378.2,574.57,376.64,567.67,375.29Z" style="fill: rgb(38, 50, 56); transform-origin: 574.31px 379.435px;" id="el4gzht3x1qqa" class="animable"></path><path d="M568,370c6.66,3.16,13.34,6,13.92,4.88s-6.34-8.73-12.45-15.12A91.46,91.46,0,0,0,568,370Z" style="fill: rgb(38, 50, 56); transform-origin: 574.977px 367.445px;" id="elu9sssmpf1qk" class="animable"></path><path d="M571.41,352.37h0c4.93,8.52,11.86,20,13.07,19.15s-4.23-22.24-6.63-31.2A33,33,0,0,0,571.41,352.37Z" style="fill: rgb(38, 50, 56); transform-origin: 578.032px 355.942px;" id="elynmkqokir7" class="animable"></path><path d="M160.48,382.08c-.72,26.15-11.11,58.23-34.27,58.23-2.27,0-33.29.6-35.32-.08C72.22,434,61.16,400,63.26,370c1.63-23.38,9.06-49.56,28.58-52.7,1.31-.21,33.93,0,35.34,0C150.56,317.27,161.25,353.94,160.48,382.08Z" style="fill: rgb(38, 50, 56); transform-origin: 111.762px 378.881px;" id="elo2z972lsla" class="animable"></path><path d="M123.3,382.08c-.72,26.15-11.11,58.23-34.27,58.23S55.27,403.24,57.6,370c1.74-24.94,9.79-52.7,32.41-52.7C113.39,317.27,124.08,353.94,123.3,382.08Z" style="fill: rgb(55, 71, 79); transform-origin: 90.3123px 378.805px;" id="ele4k0m5q4hg" class="animable"></path><path d="M113.66,381.32c-.59,20.14-8.34,44.84-25.46,44.84S63.33,397.62,65.12,372c1.34-19.2,7.35-40.58,24.07-40.58C106.47,331.42,114.29,359.66,113.66,381.32Z" style="fill: rgb(199, 199, 199); transform-origin: 89.2816px 378.79px;" id="elyzhagmk37a" class="animable"></path><path d="M83.71,335.77C84.07,344,85.3,370,87.07,370c1.5,0,5.89-24.61,7.44-33.51A13,13,0,0,0,88.46,335,15.15,15.15,0,0,0,83.71,335.77Z" style="fill: rgb(38, 50, 56); transform-origin: 89.11px 352.5px;" id="elw2ued2lwwch" class="animable"></path><path d="M90.28,371.58c1,.71,9.33-11.05,15.43-19.87a38,38,0,0,0-5.49-10.27C96.26,351.54,89,370.62,90.28,371.58Z" style="fill: rgb(38, 50, 56); transform-origin: 97.9203px 356.525px;" id="el324gz8igm3v" class="animable"></path><path d="M91.87,374.61c.43,1.06,9.44-3.06,17.57-7a81,81,0,0,0-1.84-9.74C100.16,364.74,91.35,373.29,91.87,374.61Z" style="fill: rgb(38, 50, 56); transform-origin: 100.644px 366.324px;" id="elyhm0i33ogcb" class="animable"></path><path d="M92.72,378.28c-.09,1.23,9,3,17.32,4.29,0-.49,0-1,.06-1.44.08-2.62,0-5.34-.15-8.1C101.66,374.74,92.81,376.9,92.72,378.28Z" style="fill: rgb(38, 50, 56); transform-origin: 101.425px 377.8px;" id="ele4qh4xh5txu" class="animable"></path><path d="M107.46,399.64a81.77,81.77,0,0,0,2.09-11.15c-7.94-3.69-17.21-7.66-17.9-6.38S100.52,392.93,107.46,399.64Z" style="fill: rgb(38, 50, 56); transform-origin: 100.582px 390.752px;" id="elx4difahkz8j" class="animable"></path><path d="M97.61,418.37a31.26,31.26,0,0,0,7.33-11.23C99.84,398.42,91.1,384,89.75,384.9S95.39,410.7,97.61,418.37Z" style="fill: rgb(38, 50, 56); transform-origin: 97.2592px 401.615px;" id="eld8fj6dvz1b7" class="animable"></path><path d="M79.74,420a12.69,12.69,0,0,0,7.61,2.55,13.49,13.49,0,0,0,3.14-.35C90.21,415.37,89,387,87.09,387,85.63,387,81.36,410.73,79.74,420Z" style="fill: rgb(38, 50, 56); transform-origin: 85.115px 404.775px;" id="elmuciv8v81pa" class="animable"></path><path d="M69.87,403.45a43,43,0,0,0,4.64,10.75c4-10.14,10.34-27.05,9.13-28C82.76,385.58,75.68,395.23,69.87,403.45Z" style="fill: rgb(38, 50, 56); transform-origin: 76.8305px 400.186px;" id="elz43vl4dtu6t" class="animable"></path><path d="M67.13,388.49a83.81,83.81,0,0,0,1.27,8.93c6.5-6.14,13.17-12.83,12.7-14C80.73,382.47,74,385.28,67.13,388.49Z" style="fill: rgb(38, 50, 56); transform-origin: 74.1267px 390.326px;" id="elo2wm63iusqb" class="animable"></path><path d="M66.81,375.29c-.12,2.76-.12,5.54,0,8.29,6.88-1.45,13.29-3.11,13.37-4.32C80.24,378.2,73.71,376.64,66.81,375.29Z" style="fill: rgb(38, 50, 56); transform-origin: 73.4502px 379.435px;" id="elxtecu0h42h" class="animable"></path><path d="M67.16,370c6.66,3.16,13.34,6,13.93,4.88s-6.35-8.73-12.46-15.12A93.83,93.83,0,0,0,67.16,370Z" style="fill: rgb(38, 50, 56); transform-origin: 74.1426px 367.445px;" id="elosbv4kpmts" class="animable"></path><path d="M70.55,352.37s0,0,0,0c4.93,8.52,11.85,20,13.06,19.15s-4.23-22.24-6.63-31.2A33.12,33.12,0,0,0,70.55,352.37Z" style="fill: rgb(38, 50, 56); transform-origin: 77.1666px 355.942px;" id="eldk30o5z67ig" class="animable"></path><path d="M295.87,421.05H139.7s-14.27-23.24-15.08-26.91,2.72-77.68-35.51-77.68c-33.3,0-31.83,74.29-31.83,74.29l-4.07-6.25-.92-10.85,2.6-6.43s-4.89-45.56-2.6-51.83,22.63-32.57,24-33.95,23.85-5.2,25.38-6.57,64.37-53.22,92.36-59.33,89-11,128.26-11,128.93,10.6,136.27,13.05,74.62,65.65,74.62,65.65,71.71,9.22,81.35,11.36,46.18,26.46,47.71,29.51,6.27,37.16,6.27,37.16,3.67,8.41,3.82,10.4-4.44,34.4-5.05,36.09-7.34,9.32-8.87,9.93-256.19,4-259.31,3.37-17.81-4.89-20.26-6.53-7.16-97.25-51-97.25C289.76,317.27,292.82,390.32,295.87,421.05Z" style="fill: rgb(172, 2, 2); transform-origin: 362.007px 312.839px;" id="elf5efrw31czf" class="animable"></path><g id="elhrvp0u9765e"><path d="M509,420.07c70.33-.88,148.63-2.06,149.47-2.39,1.53-.6,8.26-8.26,8.87-9.93s5.2-34.1,5-36.09-3.81-10.41-3.81-10.41-4.74-34.1-6.27-37.15-38.07-27.37-47.71-29.5-81.35-11.37-81.35-11.37,65,14.53,68.31,17.43S630,331,632.89,335s3.35,34.85,4.27,37.39,7.05,18.46,7.65,21.21-2.13,13.77-3,14.67S514.85,419.6,509,420.07Z" style="opacity: 0.1; transform-origin: 590.673px 351.65px;" class="animable"></path></g><g id="elv20il94eigg"><path d="M295.88,421.05c-2.79-27.9-5.55-90.66,22.46-102-14.31,2.59-34.28,26-35.11,87.31L139.71,421.05Z" style="opacity: 0.1; transform-origin: 229.025px 370.05px;" class="animable"></path></g><g id="el3fd7h3h6tgs"><g style="opacity: 0.6; transform-origin: 327.335px 332.345px;" class="animable"><path d="M143.37,381.44A173.62,173.62,0,0,0,133.93,338a101.07,101.07,0,0,0-4.41-10.27,72,72,0,0,0-5.67-9.66,48.32,48.32,0,0,0-7.34-8.5,43,43,0,0,0-4.4-3.55,35.77,35.77,0,0,0-5-2.73,28.78,28.78,0,0,0-11-2.6A26.47,26.47,0,0,0,85,302.41c-7.16,2.76-12.6,8.58-16.45,14.92A82,82,0,0,0,60,337.91a128.51,128.51,0,0,0-4,21.89,129.18,129.18,0,0,1,4.65-21.7,81.86,81.86,0,0,1,8.83-20.21c3.91-6.14,9.17-11.74,16-14.31A25.22,25.22,0,0,1,96.09,302a27.4,27.4,0,0,1,10.49,2.54,34,34,0,0,1,4.78,2.59,42.15,42.15,0,0,1,4.27,3.4,47.27,47.27,0,0,1,7.19,8.26c4.28,6,7.39,12.73,10.12,19.57a162.51,162.51,0,0,1,6.46,21.2A194.65,194.65,0,0,1,143.37,381.44Z" style="fill: rgb(255, 255, 255); transform-origin: 99.685px 341.041px;" id="elk1qiu9xx9o" class="animable"></path><path d="M380.22,381.44a174.86,174.86,0,0,0-9.1-42.47,92.48,92.48,0,0,0-9.55-19.62,58.89,58.89,0,0,0-6.89-8.55,40.93,40.93,0,0,0-8.82-6.63,33.88,33.88,0,0,0-10.55-3.31,33,33,0,0,0-11,.64c-7.25,1.71-13.49,6.37-18.06,12.05a69.92,69.92,0,0,0-10.59,19,109.44,109.44,0,0,0-5.58,21,109.06,109.06,0,0,1,6.21-20.76,69.12,69.12,0,0,1,10.78-18.61c4.59-5.45,10.58-9.93,17.54-11.51a31.49,31.49,0,0,1,10.56-.55,32.49,32.49,0,0,1,10.07,3.22,39.69,39.69,0,0,1,8.53,6.35,58.2,58.2,0,0,1,6.78,8.3,97,97,0,0,1,9.6,19.3,163.83,163.83,0,0,1,6.22,20.74A193.14,193.14,0,0,1,380.22,381.44Z" style="fill: rgb(255, 255, 255); transform-origin: 335.15px 341.051px;" id="eln5kzb736es9" class="animable"></path><path d="M293.73,327.42c-10-2.88-19.91-5.85-29.9-8.65h0L208,313.44l-55.83-5,.07,0L134,302.19,115.64,296l18.19,6.58L152.05,309h.06l55.8,5.28,55.83,4.94h-.05C273.68,322.06,283.72,324.7,293.73,327.42Z" style="fill: rgb(255, 255, 255); transform-origin: 204.685px 311.71px;" id="elk33cal858d" class="animable"></path><path d="M525.23,283.25l30.3,12.93L585.86,309l-.13-.12,12.09,22.68.29-.49c-29.25.25-58.5.36-87.75.76l.21.06-34.86-20.5,0,0,0,0L432.2,298.45l-43.48-12.78,43.34,13.24L475.45,312l-.08,0,34.78,20.64.1.06h.11c29.26-.17,58.51-.62,87.76-.93h.55l-.26-.49-12.19-22.63-.05-.09-.09,0-30.4-12.68Z" style="fill: rgb(255, 255, 255); transform-origin: 493.695px 307.975px;" id="elja3h3wbgt7" class="animable"></path></g></g><g id="elxlzyz5t1oll"><g style="opacity: 0.3; transform-origin: 393.745px 336.97px;" class="animable"><path d="M527.48,283.23l61.15,14.52,7.62,1.87c1.28.31,2.53.66,3.79,1l.87.29a2.73,2.73,0,0,1,.43.16l.33.29A12,12,0,0,1,603,302.7c3.41,3.92,6.53,8.15,9.73,12.28q9.48,12.52,18.8,25.18c-6-8.62-12-17.18-18.23-25.6-3.13-4.22-6.25-8.41-9.68-12.42a13.1,13.1,0,0,0-1.43-1.47l-.43-.35a4,4,0,0,0-.48-.19l-1-.33c-1.27-.35-2.54-.72-3.81-1l-7.63-1.91q-15.3-3.62-30.63-7T527.48,283.23Z" id="el5bfdar0q71w" class="animable" style="transform-origin: 579.505px 311.695px;"></path><path d="M330.2,285.67l18.6,5.87,18.63,5.76L404.64,309c6.2,1.94,12.4,3.88,18.54,6a57.32,57.32,0,0,1,8.83,4l8.69,4.41,17.39,8.83,17.45,8.69-17.25-9.1-17.32-9-8.66-4.48a56.69,56.69,0,0,0-8.87-4.11c-6.15-2.16-12.34-4.15-18.53-6.13l-37.3-11.41-18.68-5.61Z" id="elmrbjphltgvc" class="animable" style="transform-origin: 402.87px 313.3px;"></path><path d="M283.23,401.59l-18-.38-18-.26-35.91-.55-35.91-.34-18-.27-4.48-.08-2.24-.08c-.36,0-.78,0-1.08-.08s-.57-.39-.83-.62c-2-2.21-3.76-4.65-5.54-7.05,1.72,2.45,3.42,4.92,5.37,7.21.27.24.47.63.9.7a8.31,8.31,0,0,0,1.16.12L153,400l4.49.2,18,.44,35.91.64,35.92.24,17.95.1Z" id="elwgaj7bvputh" class="animable" style="transform-origin: 213.235px 396.75px;"></path><path d="M157.34,281.31Q154.51,295,151.8,308.7v.12l3.58,21.69,3.68,21.68q3.69,21.66,7.76,43.28c-2.21-14.49-4.49-29-6.93-43.42l-3.65-21.68-3.76-21.66v.12Q155,295.09,157.34,281.31Z" id="elrbeirtjczd" class="animable" style="transform-origin: 159.31px 338.39px;"></path><path d="M256.42,283.12q3.36,18,6.95,36V319q.22,19.61.61,39.2l.44,19.6.58,19.6,0-19.61-.17-19.6q-.21-19.6-.62-39.2v-.08Q260.4,301,256.42,283.12Z" id="el2lr9hmylvmo" class="animable" style="transform-origin: 260.71px 340.26px;"></path><path d="M122.14,272.32c-1.29,3.89-2.46,7.81-3.62,11.73s-2.27,7.85-3.29,11.81l0,.11,0,.09c.64,2.89,1.25,5.77,2,8.64s1.37,5.74,2.13,8.6q-.69-4.38-1.52-8.73c-.52-2.9-1.13-5.79-1.71-8.69v.21c1.15-3.93,2.14-7.89,3.21-11.84S121.27,276.32,122.14,272.32Z" id="el7tz1ckiay5g" class="animable" style="transform-origin: 118.685px 292.81px;"></path><polygon points="286.5 353.6 267.96 352.19 249.41 350.92 212.31 348.38 175.2 346.16 156.64 345.05 138.07 344.09 156.61 345.5 175.16 346.77 212.25 349.3 249.37 351.52 267.93 352.63 286.5 353.6" id="el2a1prtkj9pd" class="animable" style="transform-origin: 212.285px 348.845px;"></polygon><path d="M180.73,286.75c-.36,1.51-.66,3-1,4.55l.25-.19c-2.9-.34-5.8-.7-8.7-.95s-5.81-.57-8.72-.77l.38.51.87-4.2-.4.29c3.22.19,6.44.38,9.67.45-3.2-.48-6.4-.83-9.6-1.19l-.32,0-.08.33-1,4.18-.1.46.48.05c2.9.3,5.81.54,8.72.76s5.82.4,8.73.57l.22,0,0-.21C180.37,289.83,180.58,288.29,180.73,286.75Z" id="el0v4dimpi81t" class="animable" style="transform-origin: 171.355px 288.425px;"></path><path d="M652.46,348.84c1.11,6,2.57,12,4,17.92L657,369l.14.55.07.28c0,.13,0,0,.11,0,0,.33-.05.76-.07,1.13-.13,1.56-.28,3.09-.36,4.66-.21,3.11-.39,6.21-.45,9.28.45-3,.79-6,1.1-9,.17-1.48.28-3,.42-4.49l.11-1.15a1.37,1.37,0,0,0,0-.59l-.06-.28-.13-.56-.53-2.24C655.81,360.62,654.31,354.69,652.46,348.84Z" id="el7rdgsmaq7cp" class="animable" style="transform-origin: 655.281px 366.87px;"></path><path d="M424.32,348.84c-1.23,3-2.33,6.12-3.43,9.2s-2.14,6.18-3.1,9.3l0,.08v.06c0,2.33,0,4.65.12,7s.16,4.66.31,7q.23-3.48.31-7c.09-2.33.1-4.65.12-7l0,.13c1.08-3.08,2-6.22,3-9.33S423.51,352,424.32,348.84Z" id="el5h03dsbjctr" class="animable" style="transform-origin: 421.055px 365.16px;"></path><path d="M672.26,373,655,390.21l.09,0-61.79,2.06c-10.3.33-20.6.76-30.9,1l-30.92-.07-123.66.31h0l-25.11-6.08,25,6.38h0l123.68.3L562.4,394c10.3-.29,20.59-.77,30.89-1.14l61.79-2.43h.06l0,0Z" id="ela3a4a9zm3vg" class="animable" style="transform-origin: 527.485px 383.555px;"></path></g></g><path d="M240.62,280.78c-2,2.09-82.57-2.65-84.4-2.86s-32.62-6.11-34-7.54,48.93-37.72,53.21-39.55,50.92-4.89,57.34-2.3C237.74,230.57,243,278.38,240.62,280.78Z" style="fill: rgb(38, 50, 56); transform-origin: 181.701px 254.421px;" id="el6owal5igo9i" class="animable"></path><path d="M235.39,278.57c-1.86,1.9-75.44-2.42-77.12-2.61s-29.8-5.59-31.11-6.89,44.71-34.46,48.62-36.14,46.52-4.47,52.39-2.1C232.76,232.69,237.53,276.38,235.39,278.57Z" style="fill: rgb(55, 71, 79); transform-origin: 181.525px 254.483px;" id="elmh1tlszjlj" class="animable"></path><g id="elgu3ipflgn7m"><g style="opacity: 0.1; transform-origin: 182.37px 254.116px;" class="animable"><path d="M184.27,231.62l51,31.35c-.87-9.21-2.51-20.27-4.37-26.74L220.7,230A332,332,0,0,0,184.27,231.62Z" style="fill: rgb(255, 255, 255); transform-origin: 209.77px 246.476px;" id="elzp389oph96m" class="animable"></path><path d="M144.38,254.94l36.28,22.31c6.63.35,14,.72,21.21,1L153.29,248.4C150.29,250.56,147.26,252.78,144.38,254.94Z" style="fill: rgb(255, 255, 255); transform-origin: 173.125px 263.325px;" id="elczrxxfwdfq" class="animable"></path><path d="M129.47,266.56l8.91,5.47c2.13.47,4.37.94,6.57,1.39L131.29,265C130.61,265.59,130,266.1,129.47,266.56Z" style="fill: rgb(255, 255, 255); transform-origin: 137.21px 269.21px;" id="el0w6ul1mvjm5" class="animable"></path></g></g><path d="M179.26,232.21c-1.44.23-18.09,43.2-17.78,44s-3.28.14-3-.06,18.22-41.67,17.7-43.42C175.93,231.86,179.26,232.21,179.26,232.21Z" style="fill: rgb(38, 50, 56); transform-origin: 168.862px 254.368px;" id="el010dy4dc69avp" class="animable"></path><path d="M527.48,283.23c-2,0-192.31,2.44-197.28,2.44s-73.62-3.31-74.46-3.77-7.57-50.31-5.54-54.37c.56-1.11,92.77-5.88,104.09-5.88s104.08,4,109,4.9S530.86,283.18,527.48,283.23Z" style="fill: rgb(38, 50, 56); transform-origin: 388.716px 253.66px;" id="elz0e5jumrqut" class="animable"></path><path d="M521.56,280.82c-1.92,0-180.71,2.3-185.38,2.3s-71.09-3.11-71.88-3.54S259,235.06,261,231.24c.52-1.05,89.07-5.52,99.71-5.52s97.8,3.8,102.4,4.6S524.73,280.78,521.56,280.82Z" style="fill: rgb(55, 71, 79); transform-origin: 391.09px 254.42px;" id="el2r7jsusz1iw" class="animable"></path><g id="ely2uucmytbfe"><path d="M428.36,228.36l85.46,52.56-38.31.48-89.2-54.86C399.12,227.05,414.62,227.73,428.36,228.36Zm-117.68-.46,88.58,54.47,19.16-.24L328.75,227ZM262.08,262c.47,5,1,9.63,1.39,12.87l8.59,5.28c5.42.32,13.14.72,21.37,1.12Zm17.65-32.33,86.38,53.11,4.23,0-86.69-53.31ZM441.9,229l74.24,45.65c-2.36-2.26-5.35-5-8.68-8l-60.84-37.41h0C445.12,229.18,443.54,229.09,441.9,229Z" style="fill: rgb(255, 255, 255); opacity: 0.1; transform-origin: 389.11px 254.66px;" class="animable"></path></g><path d="M452.25,333c2.66,2.66-2,19.17-6.12,20.39s-32-2.65-35.06-3.47-34.46-10.19-37.11-13-5.1-26.3-2.24-27.94,49.95,10.61,55,12S450,330.73,452.25,333Z" style="fill: rgb(255, 255, 255); transform-origin: 411.734px 331.228px;" id="el2ez14ai5x7u" class="animable"></path><path d="M664.54,341.44c-1.09,2.13-8.72,10-10.25,11.09s-10.7,2.61-11.77,2-6.88-13.3-6.73-15.44,12.23-25.38,14.37-24.93,13.77,7.65,14.38,9.94S665.72,339.14,664.54,341.44Z" style="fill: rgb(255, 255, 255); transform-origin: 650.507px 334.412px;" id="elp786drm372" class="animable"></path><path d="M663.85,340.7c.11,1.53-3.94,6.26-4.43,6.84a42.18,42.18,0,0,0,5.11-6.1c1.2-2.3.63-15.05,0-17.33s-12.23-9.49-14.36-9.95c2.33,1,11.58,8.61,12.08,10.49S663.74,339.07,663.85,340.7Z" style="fill: rgb(219, 219, 219); transform-origin: 657.701px 330.85px;" id="elo9mrmhldars" class="animable"></path><path d="M634.35,339.45c-2.79-1-60.07-2.69-71.32-2.69s-85.26,1.74-90.33,3.49,6.34,31.85,10.78,34.07,75.75,7.92,80.66,7.92,60.58-7.86,63.91-10.08S638.94,341,634.35,339.45Z" style="fill: rgb(69, 90, 100); transform-origin: 553.608px 359.5px;" id="ela2sm6cl5xau" class="animable"></path><path d="M631.51,342.2c-2.69-.88-58-2.47-68.81-2.47s-82.26,1.6-87.16,3.2,6.12,27.17,10.4,29.2,73.09,7.27,77.83,7.27,58.46-7.21,61.67-9.24S636,343.65,631.51,342.2Z" style="fill: rgb(38, 50, 56); transform-origin: 553.617px 359.565px;" id="elt4bbs2a8rdl" class="animable"></path><rect x="473.31" y="342.63" width="160.59" height="1.49" style="fill: rgb(69, 90, 100); transform-origin: 553.605px 343.375px;" id="elfyiarq7x14a" class="animable"></rect><rect x="473.31" y="347.58" width="160.59" height="1.49" style="fill: rgb(69, 90, 100); transform-origin: 553.605px 348.325px;" id="elbea7pkoas2" class="animable"></rect><rect x="473.31" y="352.53" width="160.59" height="1.49" style="fill: rgb(69, 90, 100); transform-origin: 553.605px 353.275px;" id="elvlsvpi2jmel" class="animable"></rect><rect x="475.2" y="357.48" width="156.81" height="1.49" style="fill: rgb(69, 90, 100); transform-origin: 553.605px 358.225px;" id="elk7q36n9p2x" class="animable"></rect><rect x="477.12" y="362.43" width="152.98" height="1.49" style="fill: rgb(69, 90, 100); transform-origin: 553.61px 363.175px;" id="elyg6z5bs036e" class="animable"></rect><rect x="479.48" y="367.39" width="148.25" height="1.49" style="fill: rgb(69, 90, 100); transform-origin: 553.605px 368.135px;" id="eljcnzq60v8c9" class="animable"></rect><rect x="485.23" y="372.34" width="131.37" height="1.49" style="fill: rgb(69, 90, 100); transform-origin: 550.915px 373.085px;" id="elh5mblgwhmuu" class="animable"></rect><rect x="520.63" y="377.29" width="65.96" height="1.49" style="fill: rgb(69, 90, 100); transform-origin: 553.61px 378.035px;" id="els47if1545ri" class="animable"></rect><path d="M477.88,358.82c.22.59.44,1.18.68,1.76l152.27-2.75c.17-.59.3-1.2.43-1.81Z" style="fill: rgb(172, 2, 2); transform-origin: 554.57px 358.3px;" id="elp7cnb7pk2wb" class="animable"></path><path d="M624.17,406.37H480.28c-3,0,12.55-9.33,15-9.48s115.29,0,117.59,0S626.77,406.37,624.17,406.37Z" style="fill: rgb(38, 50, 56); transform-origin: 552.222px 401.597px;" id="el71m3kim7rsb" class="animable"></path><path d="M660.61,400.21c-1.55.25-17.53.56-20.18,0s-8.77-14.54-8.36-16.63,12.29-9.17,13.81-9.63,12.31-1.07,13.46,0S662.05,400,660.61,400.21Z" style="fill: rgb(69, 90, 100); transform-origin: 646.62px 386.94px;" id="elq8145vlv3a" class="animable"></path><path d="M453.68,381.44c1.91,2.48-11.22,17.39-16.21,19.22s-35.63,1.89-36.7,1.58-1.17-15.65-.56-18,6.32-10.91,7.59-11.67,28.7,1.58,32.42,2.54S452.81,380.32,453.68,381.44Z" style="fill: rgb(69, 90, 100); transform-origin: 426.852px 387.402px;" id="elmftwnbm5y8l" class="animable"></path><path d="M228.41,276.05l.79-2.71s-10-10.77-12.92-12.09-20.54,2-21.5,3.55-.58,8.35-.34,9.55,16,3.88,18.6,4S228.41,276.05,228.41,276.05Z" style="fill: rgb(172, 2, 2); transform-origin: 211.68px 269.65px;" id="elotew1m6wqjh" class="animable"></path><path d="M229.2,273.34l-.79,2.71s6.68,5,6.93,5.33-.16,1.74-.16,1.74H242v-9.78a16,16,0,0,1-3.17,1.35C237.81,274.85,229.2,273.34,229.2,273.34Z" style="fill: rgb(172, 2, 2); transform-origin: 235.205px 278.23px;" id="elpx2yfisfv3i" class="animable"></path></g><g id="freepik--Sign--inject-35" class="animable" style="transform-origin: 393.345px 254.59px;"><polygon points="469.92 277.99 339.6 277.99 316.77 231.19 447.09 231.19 469.92 277.99" style="fill: rgb(166, 166, 166); transform-origin: 393.345px 254.59px;" id="elroqd41359r" class="animable"></polygon><path d="M465.29,274.61H340.93l-.13-.28-19.39-39.76H445.76Zm-123.73-1H463.69l-18.56-38H323Z" style="fill: rgb(255, 255, 255); transform-origin: 393.35px 254.59px;" id="elg3y4jclnxcp" class="animable"></path><path d="M346.61,261.13l-6.17-12.65c-.32-.65-.06-1.18.6-1.18h7a2.25,2.25,0,0,1,1.76,1.18c.32.66,0,1.2-.6,1.2H343.4l1.92,3.92h5a2.26,2.26,0,0,1,1.76,1.18c.32.67.05,1.2-.6,1.2h-5l2.51,5.15c.31.64,0,1.18-.63,1.18A2.18,2.18,0,0,1,346.61,261.13Z" style="fill: rgb(255, 255, 255); transform-origin: 346.259px 254.805px;" id="elpy0qp19tdq" class="animable"></path><path d="M365.15,249.16a14.87,14.87,0,0,1,4.81,5.43,6.32,6.32,0,0,1,.48,5.42,4.07,4.07,0,0,1-4,2.3,11.66,11.66,0,0,1-6.37-2.3,14.58,14.58,0,0,1-4.77-5.42c-1-2.12-1.16-4-.52-5.43a4.19,4.19,0,0,1,4.13-2.29A11.32,11.32,0,0,1,365.15,249.16Zm2.37,5.43a10.41,10.41,0,0,0-3.29-3.75,7.49,7.49,0,0,0-4.13-1.53,2.73,2.73,0,0,0-2.73,1.53,4.47,4.47,0,0,0,.37,3.75,10,10,0,0,0,3.28,3.73,7.61,7.61,0,0,0,4.22,1.54,2.69,2.69,0,0,0,2.64-1.54A4.46,4.46,0,0,0,367.52,254.59Z" style="fill: rgb(255, 255, 255); transform-origin: 362.618px 254.588px;" id="elxf0x4l1hvd" class="animable"></path><path d="M387,260.53c.51.62.49,1.29,0,1.5a1.69,1.69,0,0,1-.44.06h0a2.24,2.24,0,0,1-1-.23,4.32,4.32,0,0,1-1.05-.75,9.5,9.5,0,0,1-1.7-2.58,3.49,3.49,0,0,0-.71-.92,4.1,4.1,0,0,0-.95-.62,6.32,6.32,0,0,0-1.45-.51h-2.53l2.27,4.65c.31.64,0,1.18-.63,1.18a2.18,2.18,0,0,1-1.75-1.18l-6.17-12.65c-.32-.67-.06-1.18.6-1.18h3.84c2.55,0,5.59,2.06,6.84,4.61a3.38,3.38,0,0,1,0,3.51,6.94,6.94,0,0,1,1.14.8,7.32,7.32,0,0,1,1.84,2.31,7.83,7.83,0,0,0,.7,1.27A2.3,2.3,0,0,1,387,260.53Zm-7.21-8.62a4.08,4.08,0,0,0-3.3-2.23h-2.63L376,254.1h2.64C379.88,254.1,380.38,253.11,379.8,251.91Z" style="fill: rgb(255, 255, 255); transform-origin: 379.064px 254.805px;" id="elj6vcu7aktio" class="animable"></path><path d="M395.48,258.58c.16-.47.83-.54,1.5-.15a11.12,11.12,0,0,0,4.9,1.65,3,3,0,0,0,2.29-.8,1.31,1.31,0,0,0,.17-1.54,2.36,2.36,0,0,0-.53-.69,4.29,4.29,0,0,0-1-.64,13.19,13.19,0,0,0-3.43-1h0a17.15,17.15,0,0,1-3.17-.83,9.06,9.06,0,0,1-2.81-1.67,5.92,5.92,0,0,1-1.35-1.76,2.75,2.75,0,0,1,.19-3.13,4.13,4.13,0,0,1,3.15-1.14,13,13,0,0,1,5.51,1.72c.66.34,1.15,1,1,1.52s-.68.66-1.36.32a9.77,9.77,0,0,0-4.12-1.37,2.67,2.67,0,0,0-2,.73,1.15,1.15,0,0,0-.15,1.35,1.8,1.8,0,0,0,.44.6,4.17,4.17,0,0,0,.85.55,11.5,11.5,0,0,0,3.14,1h0a18,18,0,0,1,3.4.9,9.66,9.66,0,0,1,3,1.78,6.16,6.16,0,0,1,1.41,1.82,2.86,2.86,0,0,1-.23,3.32,4.32,4.32,0,0,1-3.37,1.23,14.64,14.64,0,0,1-6.53-2.15A1.64,1.64,0,0,1,395.48,258.58Z" style="fill: rgb(255, 255, 255); transform-origin: 399.292px 254.616px;" id="el32mle80vlvj" class="animable"></path><path d="M417.68,258.77h-5.21l.31,2.79a.67.67,0,0,1-.75.75,1.35,1.35,0,0,1-.44-.07,2.18,2.18,0,0,1-1.46-1.54l-1.42-12.63a.67.67,0,0,1,.77-.75,2.09,2.09,0,0,1,1.5.75l10.9,12.63c.52.62.55,1.31.05,1.54a.83.83,0,0,1-.38.07,2.07,2.07,0,0,1-1.46-.75Zm-2-2.36-4-4.61.51,4.61Z" style="fill: rgb(255, 255, 255); transform-origin: 415.496px 254.814px;" id="elh1hg4jx3j2" class="animable"></path><path d="M425,261.13l-6.17-12.65c-.32-.65-.06-1.18.6-1.18a2.22,2.22,0,0,1,1.78,1.18l5.58,11.45h5.81a2.26,2.26,0,0,1,1.77,1.2c.31.64,0,1.18-.61,1.18h-7A2.18,2.18,0,0,1,425,261.13Z" style="fill: rgb(255, 255, 255); transform-origin: 426.593px 254.805px;" id="elq00uz7zvthj" class="animable"></path><path d="M437.1,261.13l-6.17-12.65c-.33-.67-.07-1.18.6-1.18h7a2.22,2.22,0,0,1,1.76,1.18c.32.66,0,1.2-.6,1.2h-5.81l1.91,3.92h5a2.27,2.27,0,0,1,1.76,1.18c.32.67,0,1.2-.6,1.2h-5l1.92,4h5.81a2.26,2.26,0,0,1,1.77,1.2c.31.64,0,1.18-.61,1.18h-6.95s-.05,0-.05,0v0A2.17,2.17,0,0,1,437.1,261.13Z" style="fill: rgb(255, 255, 255); transform-origin: 438.68px 254.83px;" id="elqztwg8hw0m" class="animable"></path></g><g id="freepik--Character--inject-35" class="animable animator-active" style="transform-origin: 603.04px 270.463px;"><path d="M552.35,440c2.16.7,63.68-.1,66-1.62.89-.56,1.29-9.53,1.47-20.39,0-.11,0-.23,0-.34,0-2.24-2.9-39.76-2.9-39.76l-41.16.42,4.36,39.41,0,.68s-23.41,10.83-25.79,12.77S550.19,439.35,552.35,440Z" style="fill: rgb(255, 196, 192); transform-origin: 585.596px 409.073px;" id="eliw4to7674qp" class="animable"></path><path d="M552.35,440c2.16.7,63.68-.1,66-1.62.89-.56,1.29-9.53,1.47-20.39,0-.11,0-.23,0-.34,0-2.24-.49-7.52-.48-7.84l-40.07.11.85,7.8,0,.68s-23.41,10.83-25.79,12.77S550.19,439.35,552.35,440Z" style="fill: rgb(235, 235, 235); transform-origin: 585.596px 425.033px;" id="eladeb3d5vy0a" class="animable"></path><path d="M552.34,440c1.11.35,17.83.32,34.17,0,3.28-.07,6.55-.14,9.66-.23,11.66-.32,21.29-.8,22.18-1.38s1.29-9.28,1.47-19.94c0-.15,0-.3,0-.45s0-.23,0-.35h-.05l-39.65.08,0,.68s-23.42,10.83-25.79,12.77S550.19,439.35,552.34,440Z" style="fill: rgb(172, 2, 2); transform-origin: 585.596px 428.951px;" id="eligwukxktz" class="animable"></path><path d="M553,437.65c10.37-.39,52.23-1,62.51-.58.08,0,.08.06,0,.06-10.27.61-52.13.87-62.5.69C552.8,437.81,552.8,437.65,553,437.65Z" style="fill: rgb(38, 50, 56); transform-origin: 584.211px 437.402px;" id="el2zz87kc33jy" class="animable"></path><path d="M575.72,417.93c4.07-.81,9.07-.25,12.23,2.62.12.11,0,.28-.17.24a57.37,57.37,0,0,0-12-2.34A.26.26,0,0,1,575.72,417.93Z" style="fill: rgb(38, 50, 56); transform-origin: 581.743px 419.194px;" id="el5bkj5wxlqp" class="animable"></path><path d="M572.8,419.75c4.07-.82,9.07-.26,12.22,2.61.13.11,0,.28-.17.24a57.79,57.79,0,0,0-12-2.34A.26.26,0,0,1,572.8,419.75Z" style="fill: rgb(38, 50, 56); transform-origin: 578.841px 421.006px;" id="elehywn9kiwtv" class="animable"></path><path d="M569.87,421.56c4.07-.82,9.07-.25,12.23,2.61.12.11,0,.29-.17.25a57.17,57.17,0,0,0-12-2.35A.26.26,0,0,1,569.87,421.56Z" style="fill: rgb(38, 50, 56); transform-origin: 575.915px 422.822px;" id="elv4s8luvohd9" class="animable"></path><g id="el5rl8jzoou2v"><path d="M586.51,440c3.28-.07,6.55-.14,9.66-.23,11.66-.32,21.29-.8,22.18-1.38s1.29-9.28,1.47-19.94c0-.15,0-.3,0-.45s0-.23,0-.35h-.05C614.36,421.49,595.22,434.24,586.51,440Z" style="opacity: 0.1; transform-origin: 603.165px 428.825px;" class="animable"></path></g><path d="M577.44,417h44.31s-8.93-103.5-8.58-105.31c.45-2.31,3.06-12.79,6.54-26.47,1.1-4.28,2.27-8.88,3.5-13.64,3.3-12.88,6.94-26.95,10.11-39.19,4.77-18.35,8.48-32.6,8.48-32.6H604.25s-4.38,13.88-9.89,31.93c-9,29.34-21,69.71-22.19,79.53C570.25,327.1,577.44,417,577.44,417Z" style="fill: rgb(38, 50, 56); transform-origin: 606.822px 308.395px;" id="ellscpzxejrih" class="animable"></path><path d="M579.4,409.44c6.77-.15,4.82-.2,11.59-.27,3.31,0,25.08-.22,28.17.3a.07.07,0,0,1,0,.13c-3.09.52-24.86.33-28.17.29-6.77-.06-4.82-.12-11.59-.26A.1.1,0,1,1,579.4,409.44Z" style="fill: rgb(55, 71, 79); transform-origin: 599.236px 409.54px;" id="elvu3lcm1rork" class="animable"></path><path d="M604.84,305.37c1.45-6.41,3.62-12.68,5.51-19q5.76-19.17,11.59-38.31,2.91-9.57,5.85-19.14,1.49-4.81,3-9.65c1-3.14,2.11-6.26,3-9.43.36-1.29.56-.59.1,1-.94,3.31-1.86,6.62-2.82,9.91q-2.87,9.79-5.76,19.58-5.77,19.47-11.63,38.92-2.92,9.75-5.86,19.5a78.47,78.47,0,0,0-2.4,9.43,43.69,43.69,0,0,0-.39,10.09c.42,6.78,1.21,13.55,1.83,20.31L608.73,359q1.88,20.24,3.71,40.47c.15,1.71.3,3.42.43,5.13,0,.57-.82.53-.88,0-1.46-13.34-2.58-26.72-3.83-40.08s-2.49-26.59-3.73-39.88c-.32-3.34-.67-6.68-.67-10A40.82,40.82,0,0,1,604.84,305.37Z" style="fill: rgb(55, 71, 79); transform-origin: 618.959px 307.091px;" id="elkywzo26um9o" class="animable"></path><path d="M608.51,199.79c2.61,20.17,7.58,58,11.2,85.43,8.48-33.25,22.09-85.43,22.09-85.43Z" style="fill: rgb(55, 71, 79); transform-origin: 625.155px 242.505px;" id="elams0d572k3h" class="animable"></path><path d="M600.24,440.32c2.15.7,63.68.13,66-1.39.89-.55,1.33-9.52,1.55-20.38,0-.11,0-.23,0-.34.05-2.23.08-4.54.09-6.87,0-.32,0-.65,0-1,.14-15.66-1-31.92-1-31.92l-40.21.27,1.12,31.62,0,1.25.23,6.55,0,.67s-23.46,10.76-25.84,12.69S598.08,439.62,600.24,440.32Z" style="fill: rgb(255, 196, 192); transform-origin: 633.572px 409.518px;" id="elo4ga4s2e65" class="animable"></path><path d="M600.24,440.32c2.15.7,63.68.13,66-1.39.89-.55,1.33-9.52,1.55-20.38,0-.11,0-.23,0-.34.05-2.23.08-4.54.09-6.87,0-.32,0-.65,0-1l-40.08,0,0,1.25.23,6.55,0,.67s-23.46,10.76-25.84,12.69S598.08,439.62,600.24,440.32Z" style="fill: rgb(235, 235, 235); transform-origin: 633.568px 425.478px;" id="elb0i5puep1lk" class="animable"></path><path d="M600.24,440.32c2.15.7,63.68.13,66-1.39.89-.55,1.33-9.52,1.55-20.38,0-.11,0-.23,0-.34l-39.7-.07,0,.67s-23.46,10.76-25.84,12.69S598.08,439.62,600.24,440.32Z" style="fill: rgb(172, 2, 2); transform-origin: 633.53px 429.378px;" id="eli9op3qopphm" class="animable"></path><path d="M600.91,437.92c10.37-.35,52.23-.79,62.51-.35.08,0,.08.06,0,.07-10.27.57-52.13.67-62.51.45C600.69,438.09,600.69,437.93,600.91,437.92Z" style="fill: rgb(38, 50, 56); transform-origin: 632.112px 437.792px;" id="elk6mwaoj5t4" class="animable"></path><path d="M623.69,418.29c4.07-.8,9.07-.22,12.22,2.66.12.11,0,.28-.18.24a57,57,0,0,0-12-2.38A.26.26,0,0,1,623.69,418.29Z" style="fill: rgb(38, 50, 56); transform-origin: 629.704px 419.579px;" id="elu19laffbr3" class="animable"></path><path d="M620.76,420.1c4.07-.8,9.07-.22,12.22,2.65.12.12,0,.29-.17.25a57.88,57.88,0,0,0-12-2.39A.26.26,0,0,1,620.76,420.1Z" style="fill: rgb(38, 50, 56); transform-origin: 626.799px 421.389px;" id="eln7w0uc4pux" class="animable"></path><path d="M617.83,421.9c4.07-.8,9.07-.22,12.22,2.66.12.11,0,.28-.17.24a57.88,57.88,0,0,0-12-2.39A.26.26,0,0,1,617.83,421.9Z" style="fill: rgb(38, 50, 56); transform-origin: 623.869px 423.189px;" id="elhmzbs49qa" class="animable"></path><path d="M605.46,199.79s.87,18,5,32.2c.33,1.18.69,2.34,1.08,3.45A66.58,66.58,0,0,1,622.34,241s.43,14.46.87,30.58c.48,18,1,38.13.87,42.39-.37,16,2,103.68,2,103.68l44.3.17s-8-98-8-103.8c.08-9.39-3.87-81.19-3.87-81.19,2.77-9-1.92-33-1.92-33Z" style="fill: rgb(38, 50, 56); transform-origin: 637.92px 308.805px;" id="elr0frgiz6yvk" class="animable"></path><path d="M627.6,409.76c6.76-.11,4.82-.17,11.59-.21,3.31,0,25.08-.11,28.17.41.07,0,.07.13,0,.14-3.1.5-24.86.22-28.18.17-6.76-.09-4.82-.14-11.59-.31C627.47,410,627.47,409.77,627.6,409.76Z" style="fill: rgb(55, 71, 79); transform-origin: 647.457px 409.967px;" id="ell6nqfnrldha" class="animable"></path><path d="M652.92,206.21c.81,24.72,1.67,49.44,2.78,74.15s2.6,49.57,4.68,74.3c1.16,13.82,2.25,33.25,3.74,47,0,.1-.13.13-.14,0-3.23-24.52-5-54.84-6.61-79.51s-2.66-49.38-3.51-74.09c-.47-14-.84-28-1.25-41.93C652.6,206,652.91,206,652.92,206.21Z" style="fill: rgb(55, 71, 79); transform-origin: 658.365px 303.894px;" id="el9r5ii7xqilv" class="animable"></path><path d="M610.1,234.37A82,82,0,0,1,622.76,241c.16.1,0,.35-.13.26-4.28-2.07-8.64-4.07-12.79-6.38A.29.29,0,0,1,610.1,234.37Z" style="fill: rgb(55, 71, 79); transform-origin: 616.274px 237.818px;" id="el5uw4gnvyvqg" class="animable"></path><path d="M609.85,219.12c.29,1.58.67,3.14,1,4.7s.56,3,.94,4.42a7.52,7.52,0,0,0,2.06,3.7c.58.54,1.21,1,1.83,1.5.33.27.69.52,1,.79l-.12-.63-.3-1.8c-.23-1.32-.44-2.65-.64-4-.4-2.61-.77-5.25-1.32-7.84a.09.09,0,0,1,.17,0c.65,2.56,1.37,5.1,1.93,7.68.28,1.27,1.27,7.53,1.32,8s.08.92.1,1.38a6,6,0,0,1,0,1.4c0,.12-.16.1-.21,0h0a5.76,5.76,0,0,1-.4-1.36c-.11-.45-.21-.9-.29-1.36,0-.16-.06-.33-.08-.5-.62-.37-1.19-.87-1.77-1.28s-1.25-.89-1.84-1.39A7,7,0,0,1,611,229a26.23,26.23,0,0,1-.73-4.5c-.2-1.78-.35-3.56-.6-5.34C609.67,219.06,609.83,219,609.85,219.12Z" style="fill: rgb(55, 71, 79); transform-origin: 613.765px 228.778px;" id="elhq2pi9rixtu" class="animable"></path><path d="M632,216.5c1.27,3.67,1.38,8.33,4.66,11.22a11.35,11.35,0,0,0,6.17,2.33,34.35,34.35,0,0,0,7.85-.08.08.08,0,1,1,0,.16c-4.6,1.55-11.11,1.7-14.84-1.39a9.45,9.45,0,0,1-3-5.35,43.23,43.23,0,0,1-1-6.86C631.76,216.43,631.93,216.41,632,216.5Z" style="fill: rgb(55, 71, 79); transform-origin: 641.289px 223.825px;" id="elbd8pltygoyh" class="animable"></path><path d="M606.35,213.46c-.72,3.69-.91,8.35-2.58,11.33a5.09,5.09,0,0,1-3,2.51,8.08,8.08,0,0,1-3.78.16c-.05,0-.06.13,0,.16a4.88,4.88,0,0,0,7.19-1.83,15.36,15.36,0,0,0,1.62-5.43c.31-2.24.56-4.61.7-6.88C606.45,213.38,606.37,213.37,606.35,213.46Z" style="fill: rgb(55, 71, 79); transform-origin: 601.724px 220.955px;" id="el9aykb0d1l8q" class="animable"></path><path d="M624.29,152.66c-2.18,7.68-18.29,36.11-30.4,38.59-12.34,2.53-40.91-11.58-44-13.13-6-3,5.64-26.33,10.63-23.86,8.33,4.11,28.71,14.55,32.06,12.52,7-4.27,12.26-9.76,22.21-17.82C621.74,143.33,626.71,144.17,624.29,152.66Z" style="fill: rgb(255, 196, 192); transform-origin: 586.561px 168.465px;" id="ell18963idrjo" class="animable"></path><path d="M551.52,178.8c-2.7-.7-15-4.63-18.12-6.59s-10.13-9.07-9.42-11.8c.58-2.26,3.18-1,3.18-1s-2.82-2.7-1.33-5.13,5.13.46,5.13.46-3-3.54-1.35-5.86,5.26,1.06,5.26,1.06-2.92-3.12-.74-4.45c2.62-1.6,7.35,4.75,10.93,6.65.82.43,17.14,7.58,17.14,7.58Z" style="fill: rgb(255, 196, 192); transform-origin: 543.065px 162.017px;" id="elgulztq95aw" class="animable"></path><path d="M534.56,149.69c3.48,4.66,5.81,6.1,11.17,8.14.1,0,.06.2-.05.17-5.42-1.52-8.6-2.9-11.36-8.15C534.19,149.59,534.39,149.47,534.56,149.69Z" style="fill: rgb(38, 50, 56); transform-origin: 540.033px 153.789px;" id="elhifvggvr19" class="animable"></path><path d="M530.69,154.41c4,4.52,6.56,6.09,12,8.65.08,0,0,.17-.06.14-5.55-2.06-8.69-3.51-12.14-8.56C530.34,154.42,530.51,154.2,530.69,154.41Z" style="fill: rgb(38, 50, 56); transform-origin: 536.578px 158.764px;" id="elp2x0kb2qz8" class="animable"></path><path d="M527.35,159.55c4.23,4.09,6.91,5.94,12.52,7.74a.11.11,0,0,1,0,.21c-5.9-1.28-9.26-3.56-12.58-7.81C527,159.4,527.08,159.29,527.35,159.55Z" style="fill: rgb(38, 50, 56); transform-origin: 533.527px 163.452px;" id="eljjuxi762ag" class="animable"></path><path d="M566.67,158.55s-4-6.07-6.4-8.35-14.28-7.52-15.56-5c-1.65,3.24,4.63,7.63,8,9.37,0,0-3.82,7.5,0,11.62S566.67,158.55,566.67,158.55Z" style="fill: rgb(255, 196, 192); transform-origin: 555.554px 155.798px;" id="elq91kwf7v8l" class="animable"></path><path d="M544.55,146.23c.62,4,5.18,6.05,8.31,8a.33.33,0,0,1,.06.55c-1.4,3.24-2.42,8.23-.44,11.4,0,.09-.07.19-.14.1-2.58-3.11-2-8.09-.22-11.55-3.24-1.94-7.73-4.15-7.61-8.48C544.51,146.21,544.54,146.21,544.55,146.23Z" style="fill: rgb(38, 50, 56); transform-origin: 548.774px 156.266px;" id="elcq5pl4zrt3p" class="animable"></path><path d="M566,155s23.16,12.18,25.46,11.22c3.83-1.58,20.3-15.56,26.47-20.27s16.28-4,6.13,12.82-20.09,29.19-29.3,33.61c-5.74,2.75-35.8-7.78-35.8-7.78Z" style="fill: rgb(172, 2, 2); transform-origin: 593.67px 168.14px;" id="el5cqhokcig13" class="animable"></path><g id="elmx9j35grh"><path d="M627.77,145.14c1.25,2.1.67,6.36-3.75,13.65-10.14,16.78-20.1,29.2-29.3,33.62-1.14.55-3.26.57-5.92.24C598,181.47,620.22,154.54,627.77,145.14Z" style="opacity: 0.1; transform-origin: 608.573px 169.004px;" class="animable"></path></g><path d="M565.26,185.2c1.7-11.57,5.25-23.39,5.73-25.5,0-.1.18,0,.15.06-.57,2-3.15,16.06-5.71,25.5C565.4,185.37,565.25,185.31,565.26,185.2Z" style="fill: rgb(38, 50, 56); transform-origin: 568.201px 172.488px;" id="elmpf62r2lgug" class="animable"></path><path d="M661.26,226.49c-.17.16-65.08-4.29-65.62-5-.76-1,19.78-67,24.93-76.66,2.19-4.13,12.69-4.72,16.84-.82,10.39,9.77,17.62,41.36,19.14,50.83C659.07,210.46,661.83,225.92,661.26,226.49Z" style="fill: rgb(172, 2, 2); transform-origin: 628.478px 183.94px;" id="elgte27ihup5b" class="animable"></path><path d="M638.6,145.36c20.47,13,41.7,37,43.26,51.41,1.55,14.23-3.55,13.34-5,13.39-8.66.28-32.84-37.35-40.6-52.9S633.53,142.13,638.6,145.36Z" style="fill: rgb(172, 2, 2); transform-origin: 657.202px 176.857px;" id="elxoa4o5r272d" class="animable"></path><path d="M664.36,200.16c-1.18-1.7-2.38-3.37-3.52-5.08l-3.5-5.1c-2.31-3.41-4.65-6.79-6.91-10.24s-4.57-6.85-6.8-10.3q-1.7-2.59-3.31-5.22c-1.11-1.74-2.14-3.52-3.18-5.3A109.86,109.86,0,0,0,643,169.84c2.11,3.55,4.37,7,6.63,10.46s4.66,6.81,7.12,10.13S661.67,197,664.36,200.16Z" style="fill: rgb(38, 50, 56); transform-origin: 650.75px 179.54px;" id="el2daz7604zdw" class="animable"></path><path d="M639.62,163.5a18.5,18.5,0,0,0-1.36-1.75c-.24-.27-.47-.55-.73-.81s-.49-.54-.78-.79a5.54,5.54,0,0,0,1.14,1.93A6,6,0,0,0,639.62,163.5Z" style="fill: rgb(38, 50, 56); transform-origin: 638.185px 161.825px;" id="elk92vsyecky" class="animable"></path><path d="M619.89,147.07a0,0,0,0,1,.05,0c-.29,2.94-.77,9.78,3.88,9.53a9.85,9.85,0,0,0,5.07-2.3,25.94,25.94,0,0,0,4.07-3.84,38.6,38.6,0,0,0,3.84-5c0-.07.16,0,.11.09-1.17,1.76-2.15,3.6-3.48,5.26a22.43,22.43,0,0,1-4.4,4.25,9.77,9.77,0,0,1-5.38,2.22,3.73,3.73,0,0,1-3.7-2.94A16.5,16.5,0,0,1,619.89,147.07Z" style="fill: rgb(38, 50, 56); transform-origin: 628.217px 151.356px;" id="elvwu35upware" class="animable"></path><path d="M623.68,153.46c3.32.44,9.07-5.54,10.87-9.77.12-.29-.59-3.15-1.28-6.67-.42-2.14-.83-4.52-1-6.73L618.72,135a35.4,35.4,0,0,1,2.18,8.33,5.6,5.6,0,0,1,0,.92s0,.09,0,.15C620.77,146.17,620.47,153,623.68,153.46Z" style="fill: rgb(255, 196, 192); transform-origin: 626.642px 141.886px;" id="ely9c13mjuiht" class="animable"></path><path d="M620.89,144.27v.15a10.05,10.05,0,0,0,1.42-.06c8-1,8.91-11,9-13.75l-3.38,1.18L618.73,135a35.28,35.28,0,0,1,2.16,8.34A4.61,4.61,0,0,1,620.89,144.27Z" style="fill: rgb(38, 50, 56); transform-origin: 625.02px 137.517px;" id="ell1a1u92r46" class="animable"></path><path d="M634.58,115c1.43,5-1.4,19.15-5,22.27-5.16,4.52-13.48,4.83-17.3-1.34-3.69-6,.32-24.41,4.28-27.24C622.44,104.57,632.47,107.72,634.58,115Z" style="fill: rgb(255, 196, 192); transform-origin: 622.89px 123.739px;" id="elyqaubavscap" class="animable"></path><path d="M622.94,124s.07.06.06.1c-.2,1-.26,2.08.55,2.55,0,0,0,.06,0,0C622.5,126.33,622.6,124.83,622.94,124Z" style="fill: rgb(38, 50, 56); transform-origin: 623.128px 125.338px;" id="eldkn026d3njv" class="animable"></path><path d="M624,123.1c1.57.16,1.15,3.27-.3,3.14S622.66,123,624,123.1Z" style="fill: rgb(38, 50, 56); transform-origin: 623.893px 124.671px;" id="eldrhzvo4o3ne" class="animable"></path><path d="M617.6,123.16s-.09,0-.09.07c-.1,1-.37,2.07-1.29,2.27,0,0,0,.06,0,.06C617.31,125.55,617.66,124.09,617.6,123.16Z" style="fill: rgb(38, 50, 56); transform-origin: 616.913px 124.36px;" id="elyy0n2p58rl" class="animable"></path><path d="M616.87,122c-1.54-.32-2.08,2.78-.65,3.08S618.16,122.31,616.87,122Z" style="fill: rgb(38, 50, 56); transform-origin: 616.499px 123.539px;" id="elsjgij3wiwup" class="animable"></path><path d="M625.39,121.84a12.37,12.37,0,0,1-1.15-.58,2.08,2.08,0,0,1-1.06-.83.66.66,0,0,1,.22-.78,1.66,1.66,0,0,1,1.67,0,2.46,2.46,0,0,1,1.24,1.22A.71.71,0,0,1,625.39,121.84Z" style="fill: rgb(38, 50, 56); transform-origin: 624.759px 120.662px;" id="elsxj8ftri71m" class="animable"></path><path d="M615.84,119.73c.44,0,.85-.1,1.28-.15a2.15,2.15,0,0,0,1.28-.41.66.66,0,0,0,.07-.81,1.66,1.66,0,0,0-1.59-.53,2.41,2.41,0,0,0-1.59.73A.71.71,0,0,0,615.84,119.73Z" style="fill: rgb(38, 50, 56); transform-origin: 616.849px 118.762px;" id="elf57yg7gdi5v" class="animable"></path><path d="M622.25,132.79c-.21.26-.4.6-.74.68a2.64,2.64,0,0,1-1.08-.11,0,0,0,0,0,0,0,1.3,1.3,0,0,0,1.29.37,1,1,0,0,0,.65-.95C622.35,132.77,622.28,132.76,622.25,132.79Z" style="fill: rgb(38, 50, 56); transform-origin: 621.4px 133.272px;" id="elxxd0kex3x9" class="animable"></path><path d="M621.91,129.82a3.34,3.34,0,0,1-2.39,1.18,4.37,4.37,0,0,1-1.19-.11l-.22,0-.21-.07a.23.23,0,0,1-.16-.24h0a.3.3,0,0,1,0-.1h0v-.08c.08-.75.3-1.87.3-1.87-.29.1-1.76.54-1.68.15a50.17,50.17,0,0,1,2.6-9.79c0-.1.2,0,.17,0-.47,3.09-1.49,6.08-2,9.18a5.71,5.71,0,0,1,1.61-.27c.1,0-.47,2.16-.48,2.5a.1.1,0,0,0,0,0,4.6,4.6,0,0,0,3.54-.61C621.91,129.68,622,129.75,621.91,129.82Z" style="fill: rgb(38, 50, 56); transform-origin: 619.152px 124.925px;" id="el3p70zujzxlq" class="animable"></path><path d="M618.87,130.84a3.49,3.49,0,0,0,1.31,1.22,1.56,1.56,0,0,0,1,.15c.72-.12.79-.76.72-1.31a4,4,0,0,0-.24-.87A4.6,4.6,0,0,1,618.87,130.84Z" style="fill: rgb(38, 50, 56); transform-origin: 620.396px 131.133px;" id="el3tokfwus2dw" class="animable"></path><path d="M620.18,132.06a1.56,1.56,0,0,0,1,.15c.72-.12.79-.76.72-1.31A1.64,1.64,0,0,0,620.18,132.06Z" style="fill: rgb(255, 156, 189); transform-origin: 621.051px 131.564px;" id="el0v8ya6hx8gkq" class="animable"></path><path d="M633.39,126.1c-2.27-.07-2.41-5.27-2.41-5.27s-5.72,1.35-5.48-6.23c0,0-6.74,1.9-10.75-.51-3.43-2.06-5-8.11-2.3-11.54,1.55-1.94,5.71-3.59,11.56,2.58,0,0,8.18-5.11,10.71,4.59,0,0,4.09.69,4.4,4.7C639.61,120.76,635.35,126.17,633.39,126.1Z" style="fill: rgb(38, 50, 56); transform-origin: 625.12px 113.445px;" id="eljyql43ct0ma" class="animable"></path><path d="M625.52,114.06a.06.06,0,0,1,.12,0c-.43,1.83-.89,3.82.51,5.37a4.44,4.44,0,0,0,5.26,1.17c.11,0,.2.11.09.16a4.84,4.84,0,0,1-5.3-.81C624.47,118.41,624.7,116.05,625.52,114.06Z" style="fill: rgb(38, 50, 56); transform-origin: 628.223px 117.606px;" id="elpfcsg7chnug" class="animable"></path><path d="M633.27,124.93c3.2-1.47,5.69-4,6.12-7.64a7.09,7.09,0,0,0-1-5c-.94-1.3-2.41-1.83-3.71-2.67a0,0,0,1,1,0-.06c8.19,2.46,6,13.49-1.23,15.75C633.2,125.39,633.06,125,633.27,124.93Z" style="fill: rgb(38, 50, 56); transform-origin: 636.543px 117.44px;" id="el34syiydo6ig" class="animable"></path><path d="M611.41,102.56c3.68-4.75,10.37-1.13,12.82,3,0,0,0,0,0,0-2.25-3.09-7.09-6.25-10.85-4.05-4.53,2.64-3.07,10.72,2,11.72.15,0,.11.29-.05.27C610.62,112.91,608.67,106.1,611.41,102.56Z" style="fill: rgb(38, 50, 56); transform-origin: 617.193px 106.905px;" id="eltbrsqoolcsl" class="animable"></path><path d="M631.36,126.59s3.38-4.49,5.42-3.27-.61,7.81-3.09,8.63a2.49,2.49,0,0,1-3.29-1.46Z" style="fill: rgb(255, 196, 192); transform-origin: 633.953px 127.623px;" id="eld58n2isicph" class="animable"></path><path d="M636,125.19s0,.06,0,.07a6.26,6.26,0,0,0-3.4,3.82,1.38,1.38,0,0,1,2.07-.3s0,.1,0,.09a1.55,1.55,0,0,0-1.71.48,6.83,6.83,0,0,0-.85,1.33c-.09.15-.36.06-.3-.11l0,0C631.8,128.33,633.61,125.33,636,125.19Z" style="fill: rgb(38, 50, 56); transform-origin: 633.901px 127.973px;" id="el98m3jtpaxkl" class="animable"></path><path d="M620.82,144.18l3.65,8,9.72-10.8,3,3.19s-9.23,16.9-9.32,16.16l-3.69-6.91L619.56,159l-.15-12.35Z" style="fill: rgb(255, 255, 255); transform-origin: 628.3px 151.067px;" id="elfs6n7ss2mkr" class="animable"></path><path d="M619.14,152.89c0-2,0-4.09.17-6.13a.07.07,0,0,1,.14,0c.49,1.94.28,9.74.37,11.6l0,0c.2-.22,4.33-4.52,4.37-4.46.78,1.09,3.48,6.12,3.67,6.58,1.46-2.68,7.08-12.45,8.83-15a.07.07,0,0,1,.13.07c-1.27,2.82-8.69,16-8.82,15.94a79.77,79.77,0,0,1-3.85-7.31c-.69.93-4.84,5.76-4.87,5.46A65.16,65.16,0,0,1,619.14,152.89Z" style="fill: rgb(38, 50, 56); transform-origin: 627.969px 153.466px;" id="elwpshs43vxq" class="animable"></path><path d="M677.32,212.14c-6.43.62-6.94,4.61-24.8-8.54-2.86-2.1,4.42-28.41,7.5-26.21,3.89,2.77,14.36,10.38,15.31,11.36C683.35,197,681.68,211.72,677.32,212.14Z" style="fill: rgb(255, 196, 192); transform-origin: 666.418px 195.224px;" id="elyrpzrjhvnhp" class="animable"></path><path d="M667.24,181.71l-9.35,29.34s15.52,5.12,20.48,1.91,4.31-15.83-.89-22.58C675.32,187.56,667.24,181.71,667.24,181.71Z" style="fill: rgb(172, 2, 2); transform-origin: 669.823px 197.864px;" id="elle7h522t2yd" class="animable"></path><path d="M666.93,182.69l.36-1-.08,0c2,1.77,4,3.53,6,5.31a42.49,42.49,0,0,1,4.48,4.35,23.28,23.28,0,0,1,2.07,3.34c1.18,2.35-.73-2.65-1.53-3.74a33.39,33.39,0,0,0-4.63-4.41c-2.06-1.69-4.14-3.36-6.3-4.93l-.06,0,0,.07Z" style="fill: rgb(38, 50, 56); transform-origin: 673.533px 188.46px;" id="el47s5r525w0j" class="animable"></path><path d="M671.73,189.27c-.56,1.44-1,2.93-1.47,4.39s-.94,3-1.38,4.43C668,201,667.14,204,666.32,207c-.23.81-.45,1.63-.66,2.44s-.34,1.78-.58,2.65c0,.07.09.1.11,0,.23-.72.56-1.41.8-2.13s.49-1.49.72-2.25c.46-1.47.91-2.95,1.35-4.42.88-3,1.75-5.92,2.53-8.91.45-1.68.94-3.37,1.29-5.08A.08.08,0,0,0,671.73,189.27Z" style="fill: rgb(38, 50, 56); transform-origin: 668.48px 200.691px;" id="elcgum2j50xl7" class="animable"></path><path d="M657.89,211.05c-.16.28-.14,0-.1-.13s.43-1.59.78-2.48c0-.09.18-.24.12.08A24.19,24.19,0,0,1,657.89,211.05Z" style="fill: rgb(38, 50, 56); transform-origin: 658.232px 209.748px;" id="el43nnwjmobud" class="animable"></path><polygon points="619.38 213.67 653.92 214.11 666.75 165.3 626.53 164.87 619.38 213.67" style="fill: rgb(38, 50, 56); transform-origin: 643.065px 189.49px;" id="elabwmfp0zai" class="animable"></polygon><polygon points="621.08 213.69 655.62 214.13 668.45 165.32 628.23 164.89 621.08 213.69" style="fill: rgb(55, 71, 79); transform-origin: 644.765px 189.51px;" id="elpddah0tdct" class="animable"></polygon><path d="M646.49,187.43a3.75,3.75,0,0,1-3.7,3.31,3,3,0,0,1-3-3.4,3.73,3.73,0,0,1,3.69-3.31A3,3,0,0,1,646.49,187.43Z" style="fill: rgb(255, 255, 255); transform-origin: 643.14px 187.385px;" id="eltnpxr696pfc" class="animable"></path><path d="M666.82,178.32c1.38,3.88,5.33,8.91,5.38,12a3.51,3.51,0,0,1-2.31,3.49s2.86,1.8,2.45,4.59c-.21,1.43-2.68,2.35-2.68,2.35a4.19,4.19,0,0,1,1.72,4c-.41,1.95-2.83,2.58-2.83,2.58s1.45,2.49.39,4.34c-2.14,3.76-19.18,2-21.17-4.51-.93-3,3.21-2.4,3.21-2.4s-5.73-2.37-5.46-5.9,5.59-2.35,5.59-2.35-5.52-2.35-4.88-6,5.8-1.69,5.8-1.69-3.53-2.95-2.4-5.61c1.87-4.4,8.46,2,12.3,1.53l2.69-6Z" style="fill: rgb(255, 196, 192); transform-origin: 658.945px 195.971px;" id="eld85418o9c8" class="animable"></path><path d="M669.69,184c-1-3.78,4-7.82,3.56-11.57-.57-5.08-6.65-.78-8.63,6.3l-.57,5.77Z" style="fill: rgb(255, 196, 192); transform-origin: 668.664px 177.356px;" id="el0to39x29es4" class="animable"></path><path d="M668.19,207.46a0,0,0,0,1,0,.09,29.75,29.75,0,0,1-17.44-2.83c-.17-.09-.1-.41.11-.34A60.77,60.77,0,0,0,668.19,207.46Z" style="fill: rgb(38, 50, 56); transform-origin: 659.422px 206.107px;" id="elbrjhpj31rdr" class="animable"></path><path d="M669.74,200.76c.07,0,.07.12,0,.13a27.86,27.86,0,0,1-18.84-4.28c-.19-.13-.23-.44,0-.3C654.79,198.59,664.21,200.67,669.74,200.76Z" style="fill: rgb(38, 50, 56); transform-origin: 660.267px 198.701px;" id="elkjpdsuld24m" class="animable"></path><path d="M651.71,188.41c5.48,3.49,11.52,4.88,17.94,5.41.08,0,.06.13,0,.14-3.21.59-7.26-.17-10.36-1a17.18,17.18,0,0,1-7.69-4.33C651.51,188.52,651.6,188.34,651.71,188.41Z" style="fill: rgb(38, 50, 56); transform-origin: 660.633px 191.282px;" id="elf335s3edyfq" class="animable"></path></g><defs>     <filter id="active" height="200%">         <feMorphology in="SourceAlpha" result="DILATED" operator="dilate" radius="2"></feMorphology>                <feFlood flood-color="#32DFEC" flood-opacity="1" result="PINK"></feFlood>        <feComposite in="PINK" in2="DILATED" operator="in" result="OUTLINE"></feComposite>        <feMerge>            <feMergeNode in="OUTLINE"></feMergeNode>            <feMergeNode in="SourceGraphic"></feMergeNode>        </feMerge>    </filter>    <filter id="hover" height="200%">        <feMorphology in="SourceAlpha" result="DILATED" operator="dilate" radius="2"></feMorphology>                <feFlood flood-color="#ff0000" flood-opacity="0.5" result="PINK"></feFlood>        <feComposite in="PINK" in2="DILATED" operator="in" result="OUTLINE"></feComposite>        <feMerge>            <feMergeNode in="OUTLINE"></feMergeNode>            <feMergeNode in="SourceGraphic"></feMergeNode>        </feMerge>            <feColorMatrix type="matrix" values="0   0   0   0   0                0   1   0   0   0                0   0   0   0   0                0   0   0   1   0 "></feColorMatrix>    </filter></defs></svg>